<?xml version="1.0" encoding="UTF-8"?>
<svg version="1.1" viewBox="0 0 2048 1362" width="1280" height="1280" xmlns="http://www.w3.org/2000/svg">
<path transform="translate(839,143)" d="m0 0h10l11 3 12 7 12 11 7 11 2 6v29l-3 15-8 17-8 11-7 7-9 5-15 4-7 1h-12l-12-5h-2l-8 14-12 19-15 26-10 18-2 4-2 9-9 19-7 13 2 4 1 1 4 45 11-5 13-4 14-7 3-8h14l5-4 2-3 9 1 10 4 4 2h4l-1-3v-7l4-2-16-4-6-3-2-3-3-16-5-15v-15l4-17 6-12 9-10 11-10 7-9 9-7 11-4 12-2h18l15 2 22 9h3l6-7 5-2 7 1 11-8 7-4h7l6-4 11-11 11-8 12-7 14-10h4l2 4 6-4h4l5 1 15-15h1l1 5 4 1-1 5-10 12-1 7 1 1-1 11 7 2 7 5 1 2 1 9 2 1 1 8 5-3h4l6 6-1 5-7 9h-2l2 12 5-4 6-9 2-9 7-8 4 4 2 3v6l-4 9-8 11-4 6 13-4 8-6 11-11 4 1 2 2-1 6-7 9-9 10-7 7-10 13 16 1 4-2 4 1v3l8-4 11-7 18-9 4-8 4-10 8-6 8-4h8l11 2 12-5h3l-2 5-1 4 3 4v3l40-13 10-5 13-12 12-11 10-6 4-1h17l6 4 9-4 12-4 5-5 7-9 2 1-3 7 5-4 13-17 12-14 4-5 3 1-2 8-8 12-14 15-9 9-11 9-13 13-6 2v15l1 9 6 2 5 2 4 5v6l-8 3h-10l-5 1-8-4h-9l-11 3 4 2-1 6-3 7 4-2 4-3v12l1 5-2 8-10 22-1 4 10-6 3 1-2 8-10 19-2 5v4l11-15 2-2h3l-1 5-4 8-6 8-8 2-1 6-3 9 7-3 10-7 3-1-1 6-8 16 7-3h3l-1 8-1 2 8-3 7-6 9-14 10 3 7 2 1 1v10l-3 10v3l10-18h3l-2 9-15 29-2 5 4-2 8-15 4-2-1 7 3-1 10-15 4-4h3l8-11 3-2 6-1-1 4-10 18-6 15v4l3 2-3 10-15 31-7 19-8 23 1 7-10 16-6 12v8l10-1 15 4 8 5 4 7 8 4 2 2 1 7 7-3 5-3 4 1 18 14 5 4 8 11 4 8 2 7-1 8-5 4-6 2 1 7 2 11v10l-2 12-4 9-1 3 1 1 7 1h9l7-20 4-6 7 2 2 2v7l-5 22-5 14-5 5-9 5-7-1-15-2 1 25 7 12 6 9 1 6-7 9-3 3-8-1-6-4-7-8-8-10-5-5-4-3-4 1-10 26-1 10-4 5-6 4-2 2v8l2 5-1 4-6 4-4 7 1 8 6 14 5 4 11 2 3 5 1 8-3 6v9l-13 15-7 8-5 3-7 19-4 7-9-5-4 1-4 4h-8l-10-2-2-3-1-7v-17l3-7 5-3v-10l10-6-1-7-6-11-10-9-10-8-6-9v-2h-2l-2 5-11 26-6 16-4-2-4-3-1 11-5 5h-2v8l9 20 1 7-11-1-3-3v-2l-7 2-3 2v16l3 6 5 6 5 8 4 3 7 18v7h-2l5 16v13l-6 13-1 22-4 8-6 4-6 3 1 7-2 15-4 10-7 11-9 12 1 9 3 12-4-1-6-4-3-1 5 31 2 14v10l-7 3-5-1-5-10-2-9v-12l3-25 3-10v-24l6-6v-11h-2l1-4 3-5v-23l-4-9-4-5-5 1-3 5-6-2-8-7-4-1-2 12-5-2h-12l-9-3-9-10-10-15-3-3-3 12-5 8h-5l-5-5-10-19-5-5-2-1 2 26-4 1-6-5-3-10-1-8 7-2-3-7-6-10h-3l-5 10-5 12-3 6h-3l-8-16-4-3h-2l-3 10-1 2h-5l-4-4v-2l-4 1-4 8-4 7 3 21-12 6-11 7-8 3-8-2-7-6-5-9-2-1 3 17v8l-3 1-5-4-3-8-6-23-1-5-7-1 3 19v5l-1 1-7-1-5-3 2 27-6 1v10l-2 12-11 6-2-9-2-14-8-17-10 1-4-6-11-40-8-16-9-21-6-2-1-14-14 3-15 6-19 10-12 11-17 17-4 6-4 17-3 13-6 10-2 3 1 12 6 31 1 7v18l-3 14-5 10-8 7-7 2h-7l-8-4-10-10-8-12-4-10-1-5-1-25 1-18 3-22v-38l3-9 10-11 7-6 8-16 3-9-1-10-1-16 3-14 5-12 7-10 9-10h2v-2l14-11 5-5 5-22 1-5 1-24-16-3-11-4h-27l-19-4-22-2-45-2-10-1-3-7-6-2 1-7 1-9-3-3v-7l3-9-1-4-4-4v-12l-2-9-5-5-8-4-4-5-1-3v-10l2-6-3-3-15-8-4-3 2-4 11-7 2-5-1-7-4-5v-2l12-1 2-1 3-12-1-5-7-4-2-4-10-4-2-4h7l9-3 6-7 2-5v-3l-4-3v-2l9-2v-3l-5-2-4-5v-9l-4-6h18l-4-7v-3l20 4h7l4-2-1-3-16-6v-2l9-6v-3l-14-6-2-4 13 2h9l5-5-2-5-2-3 1-5 7-4 10-5 10-6 4-1-1-3-6-4-4-7 5-5v-2l-12-5-4-3v-3h7l5 1h16l-2-5-1-4 4-1 3-10 4-12 4-1 11 3 1-23 2-22v-10l-10 4-8 1-5-3-3-4-2-9 3-5 7-8 3-19 5-12 3-5 2-5 1-1h8l-1-9 4-4 8-3 10-9 9-10 7-8 15-25 16-28 14-25-1-4-8-9-7-14-4-13v-23l4-12 5-9 9-10 11-10 16-9zm529 112m-1 1m-126 97-17 9-3 9 1 5 8-4 8-8 5-11zm-29 15-19 9-14 7-15 8-13 5-7 7-10 6-9 5-10 10-2-1 3-6v-5l-2-1-5 5-6 7 1 5 5 15 3 5 5 1 7-8 5-6 9-4 6-7 2-4v-9l5-5 9-2 10-9 8-3 8-1 4-5v-2l7-2 1 1h5l6-7 5-9z" fill="#BED8E5"/>
<path transform="translate(839,143)" d="m0 0h10l11 3 12 7 12 11 7 11 2 6v29l-3 15-8 17-8 11-7 7-9 5-15 4-7 1h-12l-12-5h-2l-8 14-12 19-15 26-10 18-2 4-2 9-9 19-7 13 2 4 1 1 4 45 11-5 13-4 14-7 3-8h14l5-4 2-3 9 1 10 4 4 2h4l-1-3v-7l4-2-16-4-6-3-2-3-3-16-5-15v-15l4-17 6-12 9-10 11-10 7-9 9-7 11-4 12-2h18l15 2 22 9 8 4 5 2-4 5-7 3-1 1h-8l-11-4-12-5-3-1h-11l-10 5-7 8-1 2 1 10 2 6-1 5-4 2h-7l-6-2-7 1-6 3-1 2v10l4 4 6 4 3 10 1 18 3 12 5 13h9l20-5 19-9 10-6 6-1 5 3h10l6-7 2-7 8-5 9-1h7l13-8 10-3 27-1h39l2 7-1 11-3 16-1 12-3 9v6l4 7 2 11v15l-7 2-10 1h-20l-20-5-8-1 4 23v25l4 13 7 19 3 11v14l-5 20-1 6 1 18 6 14v7l-3 6-4 2-6 1-4 11-3 6-3 22h-2l2 3v11l-3 15 1 9 7 14 3 3 2 4 4 5 2 2 6 9 3 4v2h2l1 5 3 1 1 4 3 4 4 17v11l-3 34 1 29 2 8 3 29v15l1 1 1 8v22l-1 23-3 26-4 16-6 8-8 4-16 4-12 1-50 1-31 3-24 3-39 3-14 4-25 12-10 8-22 22-4 6-4 17-3 13-6 10-2 3 1 12 6 31 1 7v18l-3 14-5 10-8 7-7 2h-7l-8-4-10-10-8-12-4-10-1-5-1-25 1-18 3-22v-38l3-9 10-11 7-6 8-16 3-9-1-10-1-16 3-14 5-12 7-10 9-10h2v-2l14-11 5-5 5-22 1-5 1-24-16-3-11-4h-27l-19-4-22-2-45-2-10-1-3-7-6-2 1-7 1-9-3-3v-7l3-9-1-4-4-4v-12l-2-9-5-5-8-4-4-5-1-3v-10l2-6-3-3-15-8-4-3 2-4 11-7 2-5-1-7-4-5v-2l12-1 2-1 3-12-1-5-7-4-2-4-10-4-2-4h7l9-3 6-7 2-5v-3l-4-3v-2l9-2v-3l-5-2-4-5v-9l-4-6h18l-4-7v-3l20 4h7l4-2-1-3-16-6v-2l9-6v-3l-14-6-2-4 13 2h9l5-5-2-5-2-3 1-5 7-4 10-5 10-6 4-1-1-3-6-4-4-7 5-5v-2l-12-5-4-3v-3h7l5 1h16l-2-5-1-4 4-1 3-10 4-12 4-1 11 3 1-23 2-22v-10l-10 4-8 1-5-3-3-4-2-9 3-5 7-8 3-19 5-12 3-5 2-5 1-1h8l-1-9 4-4 8-3 10-9 9-10 7-8 15-25 16-28 14-25-1-4-8-9-7-14-4-13v-23l4-12 5-9 9-10 11-10 16-9z" fill="#D3D6D9"/>
<path transform="translate(839,143)" d="m0 0h10l11 3 12 7 12 11 7 11 2 6v29l-3 15-8 17-8 11-7 7-9 5-15 4-7 1h-12l-12-5h-2l-8 14-12 19-15 26-10 18-2 4-2 9-9 19-7 13 2 4 1 1 4 45 11-5 13-4 14-7 3-8h14l5-4 2-3 9 1 10 4 4 3-8 6-8 8-7 8-8 9-8 13-14 28-11 14-8 10-3 5 1 9 4 6 8 5 23 11 9 7 4 7 8 3 5 5 3 6 1 5v10l-3 15-6 18-4 11v14l4 19 6 11 4-1 9-7 2 1 1 6-9 5h-5l-1 2h-3l-1 2h-2l-2 5-6 16-3 10-3 9-3 11-2 14-2 12v9l3 6v9l-2 9-4 11-3 19-5 23-7 16h-2l-1 9 3 1v2l4 2 2 4-10-1-13-4-2-1h-27l-19-4-22-2-45-2-10-1-3-7-6-2 1-7 1-9-3-3v-7l3-9-1-4-4-4v-12l-2-9-5-5-8-4-4-5-1-3v-10l2-6-3-3-15-8-4-3 2-4 11-7 2-5-1-7-4-5v-2l12-1 2-1 3-12-1-5-7-4-2-4-10-4-2-4h7l9-3 6-7 2-5v-3l-4-3v-2l9-2v-3l-5-2-4-5v-9l-4-6h18l-4-7v-3l20 4h7l4-2-1-3-16-6v-2l9-6v-3l-14-6-2-4 13 2h9l5-5-2-5-2-3 1-5 7-4 10-5 10-6 4-1-1-3-6-4-4-7 5-5v-2l-12-5-4-3v-3h7l5 1h16l-2-5-1-4 4-1 3-10 4-12 4-1 11 3 1-23 2-22v-10l-10 4-8 1-5-3-3-4-2-9 3-5 7-8 3-19 5-12 3-5 2-5 1-1h8l-1-9 4-4 8-3 10-9 9-10 7-8 15-25 16-28 14-25-1-4-8-9-7-14-4-13v-23l4-12 5-9 9-10 11-10 16-9z" fill="#BED7E4"/>
<path transform="translate(881,274)" d="m0 0h18l15 2 22 9 8 4 5 2-4 5-7 3-1 1h-8l-11-4-12-5-3-1h-11l-10 5-7 8-1 2 1 10 2 6-1 5-4 2h-7l-6-2-7 1-6 3-1 2v10l4 4 6 4 3 10 1 18 3 12 5 13h9l20-5 19-9 10-6 6-1 5 3h10l6-7 2-7 8-5 9-1h7l13-8 10-3 27-1h39l2 7-1 11-3 16-1 12-3 9v6l4 7 2 11v15l-7 2-10 1h-20l-20-5-8-1 4 23v25l4 13 7 19 3 11v14l-5 20-1 6 1 18 6 14v7l-3 6-4 2-6 1-4 11-3 6-3 22-5-5-4-8-1-15v-11l6-11v-1l-16 1-18 2-17 5-30 13-20 8-21 9-18 11-10 6-11 8-5 4-4-1-6-11-4-19v-14l8-22 4-15 1-7v-10l-3-10-5-5-9-4-5-8-9-6-23-11-8-6-4-8v-6l7-10 12-15 7-11 7-16 9-15 8-10 8-8 7-8 9-8 6-1-1-3v-7l4-2-16-4-6-3-2-3-3-16-5-15v-15l4-17 6-12 9-10 11-10 7-9 9-7 11-4z" fill="#306DC8"/>
<path transform="translate(1072,211)" d="m0 0h1l1 5 4 1-1 5-10 12-1 7 1 1-1 11 7 2 7 5 1 2 1 9 2 1 1 8 5-3h4l6 6-1 5-7 9h-2l2 12 5-4 6-9 2-9 7-8 4 4 2 3v6l-4 9-8 11-4 6 13-4 8-6 11-11 4 1 2 2-1 6-7 9-9 10-7 7-10 13 16 1 4-2 4 1v3l8-4 11-7 18-9 4-8 4-10 8-6 8-4h8l11 2 12-5h3l-2 5-1 4 3 4v3l40-13 10-5 13-12 12-11 10-6 4-1h17l6 4 9-4 12-4 5-5 7-9 2 1-3 7 5-4 13-17 12-14 4-5 3 1-2 8-8 12-14 15-9 9-11 9-13 13-6 2v15l1 9 6 2 5 2 4 5v6l-8 3h-10l-5 1-8-4h-9l-21 6-20 4-19 10-10 6-16 9-9 5-5 4-9 3-22 10-18 10-14 6-5 2-33 1-17 5-25 10-8 3-5-1-2-3v-8l2-6 2-17 3-16v-6l-1-7-66 2-12 4-11 7h-13l-8 4-3 2-2 8-6 6h-10l-5-3-6 1-10 6-19 9-20 5h-9l-5-12-3-8-1-6-1-18-3-10-8-5-2-3v-10l5-5 5-2 8 1 3 1h7l4-2-1-7-2-7v-6l4-6 7-6 8-4h11l14 5 8 4 4 1h8l4-3 5-2 2-2-11-5 6-7 5-4 9 1 11-8 7-4h7l6-4 11-11 11-8 12-7 14-10h4l2 4 6-4h4l5 1z" fill="#BED7E4"/>
<path transform="translate(839,143)" d="m0 0h10l11 3 12 7 12 11 7 11 2 6v29l-3 15-8 17-8 11-7 7-9 5-15 4-7 1h-12l-12-5h-2l-8 14-12 19-15 26-10 18-2 4-2 9-9 19-7 13 2 4 1 1 4 45 11-5 13-4 14-7 3-8h14l5-4 2-3 9 1 10 4 4 3-8 6-8 8-7 8-8 9-8 13-14 28-11 14-8 10-3 5 1 9 4 6 8 5 23 11 5 5 5 6 1 5-5 5-14 11-14 9-14 7-14 5h-10l-6-4-6-7-12-31-3-12 1-37 3-43 1-9v-10l-10 4-8 1-5-3-3-4-2-9 3-5 7-8 3-19 5-12 3-5 2-5 1-1h8l-1-9 4-4 8-3 10-9 9-10 7-8 15-25 16-28 14-25-1-4-8-9-7-14-4-13v-23l4-12 5-9 9-10 11-10 16-9z" fill="#F1B683"/>
<path transform="translate(805,870)" d="m0 0h19l21 2 12 4 12 8 5 6 1 4-4 17-5 24-5 22 2 1-13 10-7 6-2 3-1 5-3-3-11 9-9 13-10 16-10 14-2 4v2l5 1 4 2v3l-8 7-19 19-4 6-4 17-3 13-6 10-2 3 1 12 6 31 1 7v18l-3 14-5 10-8 7-7 2h-7l-8-4-10-10-8-12-4-10-1-5-1-25 1-18 3-22v-38l3-9 10-11 7-6 8-16 3-9-1-10-1-16 3-14 5-12 7-10 9-10h2v-2l14-11 5-5 5-22 1-5 1-24-1-3 4-5 8-4z" fill="#BCD6E4"/>
<path transform="translate(1403,215)" d="m0 0 3 1-2 8-8 12-14 15-9 9-11 9-13 13-6 2v15l1 9 6 2 5 2 4 5v6l-8 3h-10l-5 1-8-4h-9l-21 6-20 4-19 10-10 6-16 9-9 5-5 4-9 3-22 10-18 10-14 6-5 2-33 1-17 5-25 10-8 3-5-1-2-3v-8h2l2-9 2-20 3-15 4-3 42-6 17-5 11-7 10-6 12-5 4-6 5-13 8-6 8-4h8l11 2 12-5h3l-2 5-1 4 3 4v3l40-13 10-5 13-12 12-11 10-6 4-1h17l6 4 9-4 12-4 5-5 7-9 2 1-3 7 5-4 13-17 12-14z" fill="#F1B583"/>
<path transform="translate(1037,902)" d="m0 0h4l1 7v22l-1 23-3 26-4 16-6 8-8 4-16 4-12 1-50 1-31 3-24 3-29 2h-7l-4-9-2-9 3-3 13-1 11-1 3-2 3-6 8-5 18-5 14-4 11-4 11-6 8-8 4-7v-9l-6-12-1-7-2-6v-10l7-4 8-1 13 6 5 1h13l38-7z" fill="#BE8F67"/>
<path transform="translate(805,870)" d="m0 0h19l21 2 12 4 12 8 5 6 1 4-4 17-5 24-4 16-2 3-17 4-27 9-14 6-12 8-11 9-15 14-7 11-7 17-6 15-7 20-4-1-5-7-1-9 6-10 6-16-1-10-1-16 3-14 5-12 7-10 9-10h2v-2l14-11 5-5 5-22 1-5 1-24-1-3 4-5 8-4z" fill="#F1B583"/>
<path transform="translate(892,289)" d="m0 0h11l14 5 8 4 4 1h10l4 14 2 2 2 12 2 28v12l-1 5h2l1 5-2 6-3 3h-10l-5-3-6 1-10 6-19 9-20 5h-9l-5-12-3-8-1-6-1-18-3-10-8-5-2-3v-10l5-5 5-2 8 1 3 1h7l4-2-1-7-2-7v-6l4-6 7-6z" fill="#EFB483"/>
<path transform="translate(842,153)" d="m0 0h10l8 2 10 6 6 5 7 10 3 10v23l-4 20-6 12-8 9-10 6-12 5-5 1h-12l-10-4-13-9-7-7-5-9-3-9v-21l3-12 6-12 12-13 11-7 14-5z" fill="#306DC8"/>
<path transform="translate(934,931)" d="m0 0h12l6 9 1 3v9l-6 9-7 7-15 8-14 4-25 7-8 5-3 6-3 2-13 1-11 1-2 2 2 9 3 9-17 5-25 12-5 3v-2l-9-3-1-3 12-17 14-22 8-10 9-7 2 2 4-7 12-10 9-7 16-6 16-9 10-6 16-3z" fill="#F1B582"/>
<path transform="translate(881,274)" d="m0 0h18l15 2 22 9 8 4 5 2-4 5-7 3-1 1h-8l-11-4-12-5-3-1h-11l-10 5-7 8-1 2 1 10 2 6-1 5-4 2h-7l-6-2-7 1-6 3-1 2v10l4 4 6 4 3 10 1 18 3 12 5 13-5 5-4 2-12-9-21-5-5-5-3-16-5-15v-15l4-17 6-12 9-10 11-10 7-9 9-7 11-4z" fill="#180E0D"/>
<path transform="translate(860,953)" d="m0 0 1 4 2 1-13 10-7 6-2 3-1 5-3-3-11 9-9 13-10 16-10 14-2 4v2l5 1 4 2v3l-8 7-9 9h-10l-7 6-9 12-5 2-11-5-10-6 2-1 1-5 7-20 8-20 7-14 11-12 8-7 12-10 13-8 23-9 16-5z" fill="#BE8F67"/>
<path transform="translate(988,610)" d="m0 0h6l1 2-6 11v11l1 15 8 16v11l-2 4-17-4-39-8-43-5-43-1 2-4 13-8 16-8 21-8 37-16 17-5z" fill="#BE926C"/>
<path transform="translate(911,845)" d="m0 0 4 2 6 10 11 26 4 8 3 5 3 6 1 5v10l4 10v4l-33 3-10 3-22 13-15 6-6 1 1-9 7-31 4-20h2l1-5 3-1 3-5h2l3-11 4-8 5-6h2v-2h2l2-4z" fill="#BED7E4"/>
<path transform="translate(839,143)" d="m0 0h10l11 3 12 7 12 11 7 11 2 6v29l-3 15-8 17-8 11-7 7-9 5-15 4-7 1h-12l-12-5h-2l-8 14-12 19-15 26-10 18-2 4-2 9-9 19-8 14-4-2-5-6-7-11 1-4 8-6 15-16 9-12 15-26 16-28 10-18-1-4-8-9-7-14-4-13v-23l4-12 5-9 9-10 11-10 16-9zm3 10-11 3-12 5-9 7-10 11-6 12-3 12v21l4 12 7 9 9 8 14 8 4 1h12l13-4 11-6 9-8 6-10 4-13 2-12v-23l-3-10-8-11-11-8-6-3-6-1z" fill="#D4D7DB"/>
<path transform="translate(814,406)" d="m0 0 9 1 10 4 4 3-8 6-8 8-7 8-8 9-8 13-14 28-11 14-8 10-3 5-1 6h-1v-8l3-4-2-4-5-6-1-3-2-59 10-5 13-4 14-7 3-8h14l5-4z" fill="#BED7E4"/>
<path transform="translate(708,1113)" d="m0 0 3 1 7 17 2 11 3 28 2 5 8 2 12 1 3-24 2-14 6-11 3 1 6 31 1 7v18l-3 14-5 10-8 7-7 2h-7l-8-4-10-10-8-12-4-10-1-5-1-25 1-18z" fill="#D2D5D7"/>
<path transform="translate(1264,330)" d="m0 0h5l-1 4-11 6-12 7-13 8-17 9-7 3-5 4-12 6h-2l-2 4-11 6-17 8-8 3-33 1-17 5-25 10-8 3-5-1-2-3v-8h2l2-9 1-12h1v6l21-7 14-3 14-1h39l9-2 20-8 18-8 46-23z" fill="#BE8F67"/>
<path transform="translate(1037,902)" d="m0 0h4l1 7v22l-1 23-3 26-2 9-4 1-8-7-12-14-9-12-5-11 1-11 3-16 1-10-3-1 27-5z" fill="#F2B683"/>
<path transform="translate(988,634)" d="m0 0h1l1 15 8 16v11l-2 4-17-4-39-8-43-5-30-1v-1h18l2-4 14-9 7-3h7l6 4 4 5 7 1 22-11h10l12 2 12 1z" fill="#F1B683"/>
<path transform="translate(709,1103)" d="m0 0 4 4 7 10 5 3 4 1h8l16-3 4-1 1 12-2 1-5 10-5 35-1 3h-12l-8-2-3-6-4-35-4-12-5-10z" fill="#170D0C"/>
<path transform="translate(837,978)" d="m0 0 3 4 3 17 8 23-17 5-25 12-5 3v-2l-9-3-1-3 12-17 14-22 8-10z" fill="#BDD7E4"/>
<path transform="translate(882,343)" d="m0 0 7 1 9 3 14 2 9 1 10 4 10 6 5 1 1 4-2 12v3l3-1 2-2v5l-9 3-6-1v-3l-10-5-9-6-11-5-14-6-5-4-4-8z" fill="#BE8F67"/>
<path transform="translate(1222,297)" d="m0 0h3l-2 5-1 4 3 4 1 4-27 7-26 6-5 1 6-16 5-5 8-5 4-2h8l11 2z" fill="#C0D8E4"/>
<path transform="translate(1450,421)" d="m0 0 4 2 2 3-1 10-3 11-3 4-7 1-5-3-1-4h-2l-3 10-7 16-7 6h-4v-7l6-23 1-6 6-2 10-7 8-7z" fill="#BED8E5"/>
<path transform="translate(701,411)" d="m0 0h7l9 5 3 3v8l-4 15-4 6-10 3-7-1-5-6-2-9 3-5 7-8 2-10z" fill="#336FC8"/>
<path transform="translate(1403,215)" d="m0 0 3 1-2 8-8 12-14 15-9 9-11 9-13 13-6 2-2 2-3-5-3-3v-8l8-4 15-5 5-5 7-9 2 1-3 7 5-4 13-17 12-14z" fill="#C0D8E5"/>
<path transform="translate(751,344)" d="m0 0 7 1 4 2-1 8-9 19-8 14-4-2-5-6-7-11 1-4 8-6z" fill="#3571C9"/>
<path transform="translate(1217,109)" d="m0 0 3 1-1 4-6 9-8 9-5 1-1-4-5 3-9 11-7 7-3 2h-3l2-5 18-22 13-8zm-18 18 1 2z" fill="#BED8E5"/>
<path transform="translate(792,1036)" d="m0 0 6 1 6 3v3l-8 7-9 9h-12l7-11z" fill="#1A1110"/>
<path transform="translate(948,294)" d="m0 0 8 1 2 2-1 6-8 7-3 2-4-1-1-9 1-2h-2v-2l7-3z" fill="#FDFDFD"/>
<path transform="translate(1151,395)" d="m0 0h5l-3 2-2 1-33 1-17 5-25 10-10 3 1-3 20-8 27-9 4-1z" fill="#F2B683"/>
<path transform="translate(1113,190)" d="m0 0 3 1-10 13-12 12-3 2h-3l1-4 10-14 9-7z" fill="#BED8E5"/>
<path transform="translate(777,1058)" d="m0 0 9 1-6 7-7 9-1-2-5 2-5 3-2-1 11-14z" fill="#D2D3D5"/>
<path transform="translate(1118,398)" d="m0 0h32l-2 3h-32l-12 4-27 10-7 4-2-1-1 3-1-4 35-14z" fill="#D4D6D9"/>
<path transform="translate(844,400)" d="m0 0 5 2 8 6v4l-16 2-1-4v-7z" fill="#BCD5E4"/>
<path transform="translate(759,517)" d="m0 0 1 4h2l1 7-3 3-10 23-3 5-2 1 1-6 5-12 2-6 5-14z" fill="#BE9069"/>
<path transform="translate(862,148)" d="m0 0 5 2 11 8 7 7h-3l-3-2v-2l-4-1v2l-4-2-5-4-10-4 1-3z" fill="#F7F8F8"/>
<path transform="translate(796,184)" d="m0 0 1 2-4 11-1 6v21l4 12 7 9 8 7h-3l-8-7-4-5-2-2-5-13-1-12 3-17 4-11z" fill="#BED8E5"/>
<path transform="translate(840,152)" d="m0 0h18l9 4 6 5 2 4-4-2-9-6-4-2-6-1h-10l-11 3-12 5-4 3h-2v-3l18-8z" fill="#BFD7E4"/>
<path transform="translate(705,1159)" d="m0 0 2 1 1 11-1 2 3 1v7h2v5h2l2 5-1 3-4-6-3-6-2 1-1-5-1-17z" fill="#BED8E5"/>
<path transform="translate(1123,348)" d="m0 0h6l-3 2-16 4-27 4h-9v-1l26-4z" fill="#D4D6D9"/>
<path transform="translate(883,221)" d="m0 0h1l-1 9-4 10-6 7-3 5-3 1-3-1 9-8 6-10z" fill="#BED7E4"/>
<path transform="translate(755,482)" d="m0 0h1l2 16 5 5 3 2-1 5-3 5-1 6h-1v-8l3-4-2-4-5-6-1-3z" fill="#CCD6DD"/>
<path transform="translate(860,663)" d="m0 0 4 1 4 4-1 2h-6l-7-2 5-4z" fill="#BED8E5"/>
<path transform="translate(708,1125)" d="m0 0 3 3v3l-1 2h-2l-1 10h-2v-8l2-9z" fill="#BFD7E4"/>
<path transform="translate(948,339)" d="m0 0h1l2 35-1-2h-2z" fill="#D4D6D9"/>
<path transform="translate(813,154)" d="m0 0 1 2-8 7-3 1v2l-8 7-2 1 2-4 10-10z" fill="#FEFEFE"/>
<path transform="translate(1209,1240)" d="m0 0h1v9l-7 3-5-1-1-3 7 1 4-3z" fill="#FEFEFE"/>
<path transform="translate(705,1159)" d="m0 0 2 1 1 11-1 7h-2l-1-17z" fill="#C7D7DF"/>
<path transform="translate(709,1113)" d="m0 0 3 3 2 6-5 1-1-2z" fill="#C7CCD0"/>
<path transform="translate(828,155)" d="m0 0m-2 1h2v2l-12 6-3 1v-3z" fill="#BED7E4"/>
<path transform="translate(1317,806)" d="m0 0 4 2v4l-4 1-1-1v-5z" fill="#FEFEFE"/>
<path transform="translate(863,155)" d="m0 0 4 1 6 5 2 4-4-2-5-4z" fill="#C8D7DF"/>
<path transform="translate(1223,363)" d="m0 0 1 3-3 6-1-4-6 1v-2l6-2z" fill="#E5E6E8"/>
</svg>
