<?xml version="1.0" encoding="UTF-8"?>
<svg version="1.1" viewBox="0 0 1600 1066" width="1280" height="1280" xmlns="http://www.w3.org/2000/svg">
<path transform="translate(897,91)" d="m0 0h46l35 4 22 5 17 6 21 10 16 10 16 13 8 7 10 10 10 13 8 13 7 15 4 14 1 6v18l-4 16-7 13-9 11-17 17-7 10-2 5v9l4 6 16 8 17 5 34 7-1-95-9-9-8-12-5-14-2-11v-11l3-14 5-9 7-8 10-6 7-2h15l11 4 10 6 11 11 7 11 5 14 1 5v22l-5 14-3 6-1 6v9l3 14 5 13 14 31 2 5 12-1 5 3 2 4v9l-7 8-9 7-15 9 18 11 19 14 11 10 8 7 13 13 7 8 13 16 13 18 13 21 14 27 10 23 10 31 6 29 3 27v31l-3 25-5 23-9 27-2 4 17 1v21l6 2 20 10 16 2 8 4 7 7 5 13 2 16v22l-3 12-4 8-9 8-11 4-5 1-48 1-6 4-5 8-1 9 2 8 4 6 4 3 9 2 7 6 5 11 3 12v23l-4 12-6 8-6 4-3 1h-1132l-11-4-9-6-7-9-5-11-2-12 1-14 4-12 6-8 5-4 14-3 8-4 5-8 2-8-1-12-5-10-9-3-18-3-14-5-8-6-8-9-4-11-1-6v-15l3-16 5-12 7-9 6-5 10-5 8-3 1-1v-13l-8-16-5-16-3-17v-25l3-17 5-15 8-15 9-11 9-9 13-10 19-13 12-9 10-9 9-10 8-13 4-11 5-16v-12l-4-16-8-16-9-13-9-11-9-10-12-13-8-11-8-16-5-15-2-11v-26l4-20 6-16 8-15 9-12 9-10 12-11 17-11 19-9 20-6 10-2 20-1 18 2 16 4 5-1h23l1 1 1 10 31 11h7l4-1h8l7 2h7l6-4 6-9 8-21 6-7 9-5 9-2h14l11 3 9 6 10 8 10 4 6 1h10l13-2 18-10 18-12 19-12 32-19 25-14 15-8 28-13 26-11 36-12 25-6 25-4zm260 67 2 6 3 6h3v-4h-2l-1-5-2-3zm7 1 1 4 2 5 4-1-1-4-2-4zm-17 1-1 4 3 1v5l2 5 2 1 2-1-1-5-4-10zm6-2-2 1 2 5 4 9h2l-1 2-5 2h-3l-1-4h-2v-5l-2-6-5 2-5 5 3 1-1 3 2 2 1 5h2l1 5 2 5h4v-2h5l1-2 5-2 5-1-1-5-1-3 4 1 1-5-5 1-3 1 1-3-2-2-2-5-3-5zm19 4v4l4-1-1-3zm4 4-7 3v4h4v-2l5-1 4-2v6l5-1-2-4-3-3zm-43 5-2 4-3 3 1 4-3 2-1 8h5l6-3v-2l3 2-15 7 1 4 8-4h4l-12 5v4l5-1 5-2v-2h5l2-2 4-1-1-4-2-5h-2v-5l-2-5h-2l-1-5zm45 0-7 4-5 2 1 4 4-2 10-4v-4zm8 3-2 1 1 4 6-3-2-2zm-5 2-13 6 1 4 4-1v-2h5l1-2 4-1v-4zm10 2-10 5-10 4-22 10 1 4 4-2 10-4 6-3 5-2v-2l4 1 1-3h5l10-5-1-3zm4 4-15 7-8 4-10 4-11 5 1 4 2 1-6 3 2 8 6-1 5-2h3l-6 3v3l5-1v-2l4 1 2-2 5-2h3l-20 10v3l9-3 5-3 15-6 11-5 6-3v-4l-9 3-10 5 1-3 5-1 5-2v-2l6-1 2-1v-3l-6 1-10 4v-3l4 1 2-2 9-3-1-4-7 2-11 5-4 2 1-2 6-3 9-3 5-2-1-5-3-5zm-31 2-11 5-6 3v3l5-1 10-4v-2h5v-4zm-19 14-1 5h4l-1-5zm-5 2-5 3-9 5 1 2 5-1 5-2 6-2-1-5zm8 3-2 2v3l5-1-2-4zm-6 3-14 7v3l11-3 6-3v-4zm60 4-16 7-4 2-13 6-11 5-6 2-2 2-3-3v7l2 5 8 4 5 2h6l2-2 2 1v2h4l-1-6 2 1v4l5-1 11-6v-2l-5 1-5 3-4 1 1-2 15-6v-2l4-1 1-4-6 2-8 4-11 5h-3l11-5 16-8 4-4-3-1-11 5v2l-6 1-10 4v2h-4l1-2 14-5 3-3 4-1 11-5 1-4-5 1-6 3h-3l10-5 5-2v-4zm-58 1-4 2-9 4-2 1 2 5 1-4 9-1 3-2h2v3l3-1v-2h-2v-5zm59 5m-63 15-2 2 2 3h2l1 2v-7zm7 19-1 91 1 2 33 6 13 4 4-2 9-8 8-10-1-5-16-35-8-16-9-10-7-6-13-6z" fill="#B7CFF3"/>
<path transform="translate(897,91)" d="m0 0h46l35 4 22 5 17 6 21 10 16 10 16 13 8 7 10 10 10 13 8 13 7 15 4 14 1 6v18l-4 16-7 13-9 11-17 17-7 10-2 5v9l4 6 16 8 17 5 34 7-1-95-9-9-8-12-5-14-2-11v-11l3-14 5-9 7-8 10-6 7-2h15l11 4 10 6 11 11 7 11 5 14 1 5v22l-5 14-3 6-1 6v9l3 14 5 13 14 31 2 5 12-1 5 3 2 4v9l-7 8-9 7-15 9 18 11 19 14 11 10 8 7 13 13 7 8 13 16 13 18 13 21 14 27 10 23 10 31 6 29 3 27v31l-3 25-5 23-9 27-2 4-36 1h-30l1-5 8-13 1-6-3-6-8-8-12-8-16-15-8-7-10-9-2-1v-2l-4-2-10-9-11-9-17-13-15-10-9-8-12-16-7-11-7-14-2-9-12-29-11-24-7-12-12-12-9-7-6-7-5-16-3-17v-18l4-23 2-6v-7l-5-6-2-8v-11l3-10 2-3-15-2h-8l-9 6-7 2h-8l-7-3-3-2v-2l-5-1h-12v2l-4 1-1 15-4 18v8l2 9 3 7 1 11h2l1 8 1 1 5 51 2 15 1 13 6 35 12 59 3 11 7 4 7 25 8 23 15 29 14 33 7 18v3h-129v-118l-18 1-11-6-22-13-13-8-16-10-11-6-28-17-20-12-9-6-16-9-36-22-27-16-28-17-13-8-28-17-14-8-19-12-1-1-1-11-6-2-1-16-25-1v11l-1 12-15 2-2 21-1 1-15 1v20l-1 2-15 2-1 21-4 1-12 1-1 22-15 1v8l13 10 8 5 20 6 7 5 2 5v10l-4 4-2 1h-12l1 20 3 2h19l3-2 2-21h5l1 22 3 1h17l5-1 1-3 1-19h5l2 2v162h-96l3-23 2-20v-13l-2-17 1-7-4-2-15-14-8-7-15-14-8-7-12-11-13-13v-2l-2-1 2-2-1-10-2-13-3-37 13-5 3-2 4 1 1 3 5-1 12-13 1-2h2v-2l14-2v-21l15-2 1-1 1-20 1-1 15-1v-19l1-3 15-2v-29l-25 1v12l-1 10-3 1-4-2-1-21h-24l-1 22-5 1-2-1-1-23h-25l-1 25-10 1-5-8-7-6-6-3-5-1h-15l-2 6-8 13-2 4-5-2-24-14h-9l-15 6-9 5-5 5-7 9-6 14-9 26-1 2v9l2 1-4 9h-1l-3-19-6-15-9-15-13-16-9-10-12-13-8-11-8-16-5-15-2-11v-26l4-20 6-16 8-15 9-12 9-10 12-11 17-11 19-9 20-6 10-2 20-1 18 2 16 4 5-1h23l1 1 1 10 31 11h7l4-1h8l7 2h7l6-4 6-9 8-21 6-7 9-5 9-2h14l11 3 9 6 10 8 10 4 6 1h10l13-2 18-10 18-12 19-12 32-19 25-14 15-8 28-13 26-11 36-12 25-6 25-4zm260 67 2 6 3 6h3v-4h-2l-1-5-2-3zm7 1 1 4 2 5 4-1-1-4-2-4zm-17 1-1 4 3 1v5l2 5 2 1 2-1-1-5-4-10zm6-2-2 1 2 5 4 9h2l-1 2-5 2h-3l-1-4h-2v-5l-2-6-5 2-5 5 3 1-1 3 2 2 1 5h2l1 5 2 5h4v-2h5l1-2 5-2 5-1-1-5-1-3 4 1 1-5-5 1-3 1 1-3-2-2-2-5-3-5zm19 4v4l4-1-1-3zm4 4-7 3v4h4v-2l5-1 4-2v6l5-1-2-4-3-3zm-43 5-2 4-3 3 1 4-3 2-1 8h5l6-3v-2l3 2-15 7 1 4 8-4h4l-12 5v4l5-1 5-2v-2h5l2-2 4-1-1-4-2-5h-2v-5l-2-5h-2l-1-5zm45 0-7 4-5 2 1 4 4-2 10-4v-4zm8 3-2 1 1 4 6-3-2-2zm-5 2-13 6 1 4 4-1v-2h5l1-2 4-1v-4zm10 2-10 5-10 4-22 10 1 4 4-2 10-4 6-3 5-2v-2l4 1 1-3h5l10-5-1-3zm4 4-15 7-8 4-10 4-11 5 1 4 2 1-6 3 2 8 6-1 5-2h3l-6 3v3l5-1v-2l4 1 2-2 5-2h3l-20 10v3l9-3 5-3 15-6 11-5 6-3v-4l-9 3-10 5 1-3 5-1 5-2v-2l6-1 2-1v-3l-6 1-10 4v-3l4 1 2-2 9-3-1-4-7 2-11 5-4 2 1-2 6-3 9-3 5-2-1-5-3-5zm-31 2-11 5-6 3v3l5-1 10-4v-2h5v-4zm-19 14-1 5h4l-1-5zm-5 2-5 3-9 5 1 2 5-1 5-2 6-2-1-5zm8 3-2 2v3l5-1-2-4zm-6 3-14 7v3l11-3 6-3v-4zm60 4-16 7-4 2-13 6-11 5-6 2-2 2-3-3v7l2 5 8 4 5 2h6l2-2 2 1v2h4l-1-6 2 1v4l5-1 11-6v-2l-5 1-5 3-4 1 1-2 15-6v-2l4-1 1-4-6 2-8 4-11 5h-3l11-5 16-8 4-4-3-1-11 5v2l-6 1-10 4v2h-4l1-2 14-5 3-3 4-1 11-5 1-4-5 1-6 3h-3l10-5 5-2v-4zm-58 1-4 2-9 4-2 1 2 5 1-4 9-1 3-2h2v3l3-1v-2h-2v-5zm59 5m-63 15-2 2 2 3h2l1 2v-7zm7 19-1 91 1 2 33 6 13 4 4-2 9-8 8-10-1-5-16-35-8-16-9-10-7-6-13-6z" fill="#F8FBFD"/>
<path transform="translate(622,409)" d="m0 0 14 1 1 1 1 11 21 13 40 24 28 17 32 19 16 10 17 10 35 21 16 10 32 19 9 6 11 6 14 9 11 6 26 16 5 1h15v347h-17l-1-149-14-9-9-5-11-7-11-6-9-6-12-7-40-24-14-9-9-5-28-17-22-13-79-48-23-14-30-18v139l-10-1-5-2z" fill="#2C3252"/>
<path transform="translate(996,373)" d="m0 0h2l6 15 1 11h2l1 8 1 1 5 51 2 15 1 13 6 35 12 59 3 11 7 4 7 25 8 23 15 29 14 33 7 18v3h-129v-118l-18 1-11-6-22-13-13-8-16-10-11-6-28-17-20-12-9-6-16-9-36-22-27-16-28-17-13-8-28-17-14-8-19-12-1-1-1-12 1-18h25l2 5v18l6 1v-10l1-14h25l1 1v22h7v-23h25l1 1 1 11v11h6l1-23h25l1 1v22h7v-23h25l1 1 1 12v10l6 1v-23l1-1h25l1 1v22h7v-22l5-1h20l2 3v20h6v-22l2-1h24l1 1 1 10v12l5-1 1-22h25l1 1v6l-10 9-11 9h-2v2l-18 10-9 3-29 6-5 3-2 2v13l3 3h10l17-5 23-10 17-9 26-16 17-12 28-24 8-7z" fill="#B7CFF3"/>
<path transform="translate(460,392)" d="m0 0h25l1 2v21h6l1-22 1-1h24l1 1 1 21 5 1 1-16 1-6 3-1h22l1 5v24l-1 1-15 1-1 22-15 2-1 20-2 2-15 1v21l-5 2h-9v2h-2l-2 4-12 13-4-1-2-3-4 1-12 5h-3l2 15 2 22 3 18v5l-2 2 9 10 13 13 8 7 12 11 10 9 12 11 8 7 4 3v10l2 14v13l-2 20-4 24-5 31-4 35-1 15 3 11 10 5-2 5-3 4v2l3 1 2-5 3-4 4 1-4 7-2 4 4-1 5-8 4 1-1 4-1 2h-2v6l4-4 3-5 6 1 13 8 2 3-1 6-4 5-6 4-3 1h-17l-19-6-18-3-8-4-5-7-1-3v-13l1-12-1-54 1-46 3-24 1-6-9 4-5-1-9-7-12-11-16-16-5-6 1 16 4 33-12 5h-3v26l-3 9-6 8-12 10-13 8-23 12-24 11-21 10-17 10-7 6-7 9-2 10h-7l-5-1 1 3 11 3v3h-12v2l11 2v5l-12-2v4l11 1 1 1v10l-2 10-5 5-9-2-6-4-6-8-3-11-3-27-2-6v-13l3-6 8-6 19-6 11-7 12-9 18-13 12-9 17-12 17-10 11-5h2l-1-16-8-1-5-2-1-1-2-21-5-25-8-31-1-6v-20l-2-2-1-10-8-13-12-14-8-8-4-6-12-15-5-10 2-10 7-21 3-7-2-3v-7l6-16 7-20 7-12 6-7 10-6 14-6 3-1h9l24 14 5 2 6-12 6-10 2-1h13l9 3 6 4 7 8 1 4 3-1h7v-23z" fill="#F7D289"/>
<path transform="translate(1211,362)" d="m0 0 5 1 14 8 17 13 11 9 13 12 11 11 7 8 13 16 13 18 13 21 14 27 10 23 10 31 6 29 3 27v31l-3 25-5 23-9 27-2 4-36 1h-30l1-5 8-13 1-6-3-6-8-8-12-8-16-15-8-7-10-9-2-1v-2l-4-2-10-9-11-9-17-13-15-10-9-8-12-16-7-11-7-14-2-9-12-29-11-24-7-12-12-12-9-7-6-7-5-16-3-17v-18l4-23 2-6 1-5 3 1 14 14 11 9 16 10 9 4h9l14-7 17-12 14-11 15-13z" fill="#B8D0F3"/>
<path transform="translate(1020,327)" d="m0 0 5 2 4 4 6 2h8l11-4 5-4h8l15 3-3 9-1 4v11l3 10 4 4v7l-3 11-3 18v18l4 21 4 12 8 9 9 7 10 10 8 14 11 24 12 30 2 9 7 13 7 10 9 12 7 8 22 15 14 11 14 12 10 8v2l4 2 14 13 8 7 11 10 12 8 9 9 2 7-3 8-7 11-7 18-7 9-6 4-10 2-8-5-3-4 1-10 7-21 2-11 7-3 3-2-1-5-5-6-5-1-6 5-5-2-19-13-11-7-34-22-25-16-9-7-13-16-15-22-6-8v-2h-5l-13-16-13-17h-1l5 32v7l-11 7-11 4h-15l-9-2-2-2-6-25-12-61-4-27-1-14-3-24-3-33-1-1v-8h-2l-3-14-3-7-1-6v-8l4-18 1-15 5-1v-2z" fill="#FDB5A2"/>
<path transform="translate(451,577)" d="m0 0h3l7 8 14 14 8 7 12 11 10 9 12 11 8 7 4 3v10l2 14v13l-2 20-4 24-5 31-4 35-1 15 3 11 10 5-2 5-3 4v2l3 1 2-5 3-4 4 1-4 7-2 4 4-1 5-8 4 1-1 4-1 2h-2v6l4-4 3-5 6 1 13 8 2 3-1 6-4 5-6 4-3 1h-17l-19-6-18-3-8-4-5-7-1-3v-13l1-12-1-54 1-46 3-24 1-6-9 4-5-1-9-7-12-11-16-16-5-6 1 16 4 33-12 5h-3v26l-3 9-6 8-12 10-13 8-23 12-24 11-21 10-17 10-7 6-7 9-2 10h-7l-5-1 1 3 11 3v3h-12v2l11 2v5l-12-2v4l11 1 1 1v10l-2 10-5 5-9-2-6-4-6-8-3-11-3-27-2-6v-13l3-6 8-6 19-6 11-7 12-9 18-13 12-9 17-12 17-10 11-5h2l-1-16-8-1-5-2-1-1-2-21-5-25-8-31-1-6v-20l13 2 10 4 6 1 7-2 27-4 12-4 12-7 12-11z" fill="#5684D6"/>
<path transform="translate(357,213)" d="m0 0 20 1 19 4 7 1 1-1h23l1 1 1 10 1 2-3 1h-9l-1 74-12-2-17-2-11 1-10 4-4 5-2 4-11 3-5 6-2 5 1 6 2 3-1 5-2 4v8l4 10 5 5 7 3 4 6 6 1 7-1 4 4v8l-16 1-4 1-1 13-9 4-13 7-5 5-7 9-6 14-9 26-1 2v9l2 1-4 9h-1l-3-19-6-15-9-15-13-16-9-10-12-13-8-11-8-16-5-15-2-11v-26l4-20 6-16 8-15 9-12 9-10 12-11 17-11 19-9 20-6 10-2z" fill="#F8FBFD"/>
<path transform="translate(297,521)" d="m0 0 2 1 5 10 13 16 6 8 9 9 8 10 8 13 1 10 4 2h-3l1 20 5 22 7 28 3 20 1 13 8 3 5 1 1 4v12l-9 4h-166l-7-15-5-16-3-17v-25l3-17 5-15 8-15 9-11 9-9 13-10 19-13 12-9 10-9 9-10 8-13z" fill="#F8FBFD"/>
<path transform="translate(1324,474)" d="m0 0 4 5 14 27 10 23 10 31 6 29 3 27v31l-3 25-5 23-9 27-2 4-36 1h-30l1-5 8-13 1-6-3-6-8-8-12-8-16-15-8-7-10-9-2-1v-2l-4-2-10-9-11-9-17-13-15-10-9-8-7-9 1-2 2 1h19l3-2 1-21h6l1 21 3 2h20l2-1 1-4 1-18h5l1 5 1 16 3 2h22l1-23h6l1 20 3 3h19l3-1 1-21 1-1h5l1 1 1 21 5 1h9l11-1v-27l-1-1-14-1-1-1v-15l16-2v-28l-15-1v-16l15-2z" fill="#F8FBFD"/>
<path transform="translate(464,507)" d="m0 0 4 1 1 3 4 1v3l5 1 26 15 2 3-2 1-1 20-1 1-14 1-1 2v25l3 2h19l3-2 1-3 1-18h5l1 20 3 3h20l3-3 1-20 4-1 2 2 1 20 3 2h19l3-2 2-21h5l1 22 3 1h17l5-1 1-3 1-19h5l2 2v162h-96l3-23 2-20v-13l-2-17 1-7-4-2-15-14-8-7-15-14-8-7-12-11-13-13v-2l-2-1 2-2-1-10-2-13-3-37 13-5z" fill="#F8FBFD"/>
<path transform="translate(915,563)" d="m0 0h6l2 22 5 1h17l3-3 1-20h6l1 20 3 3h19l3-2 1-20 1-1h5l2 21 3 2h18l3-1 1-2 1-19 5-1 1 2 1 19 5 2 8 1 3 6 6 3 7 25 8 23 15 29 14 33 7 18v3h-129v-118l-18 1-11-6-22-13-5-5 3-1z" fill="#F8FBFD"/>
<path transform="translate(1079,544)" d="m0 0 5 5 13 16 10 13 5 1 14 20 12 17 11 13 17 11 25 16 23 15 16 10 14 10 5 2 6-5 5 1 7 9-1 4-6 4h-4l-1 11-2 7h-2l-1 3h-121l-2-2-8-32-7-23-13-30-5-15-9-38-5-36z" fill="#F8FBFD"/>
<path transform="translate(1150,151)" d="m0 0h15l11 4 10 6 11 11 7 11 5 14 1 5v22l-5 14-3 6-1 6v9l3 14 5 13 14 31 2 5 12-1 5 3 2 4v9l-7 8-9 7-15 9-4 4-11 9-12 10-16 12-13 8-10 5h-9l-16-8-10-7-14-12-10-9-7-8-3-6-1-5v-11l3-10 3-3 10 10 8 7 10 9 14 13 11 8 7 3v-37l-1-96-9-9-8-12-5-14-2-11v-11l3-14 5-9 7-8 10-6zm7 7 2 6 3 6h3v-4h-2l-1-5-2-3zm7 1 1 4 2 5 4-1-1-4-2-4zm-17 1-1 4 3 1v5l2 5 2 1 2-1-1-5-4-10zm6-2-2 1 2 5 4 9h2l-1 2-5 2h-3l-1-4h-2v-5l-2-6-5 2-5 5 3 1-1 3 2 2 1 5h2l1 5 2 5h4v-2h5l1-2 5-2 5-1-1-5-1-3 4 1 1-5-5 1-3 1 1-3-2-2-2-5-3-5zm19 4v4l4-1-1-3zm4 4-7 3v4h4v-2l5-1 4-2v6l5-1-2-4-3-3zm-43 5-2 4-3 3 1 4-3 2-1 8h5l6-3v-2l3 2-15 7 1 4 8-4h4l-12 5v4l5-1 5-2v-2h5l2-2 4-1-1-4-2-5h-2v-5l-2-5h-2l-1-5zm45 0-7 4-5 2 1 4 4-2 10-4v-4zm8 3-2 1 1 4 6-3-2-2zm-5 2-13 6 1 4 4-1v-2h5l1-2 4-1v-4zm10 2-10 5-10 4-22 10 1 4 4-2 10-4 6-3 5-2v-2l4 1 1-3h5l10-5-1-3zm4 4-15 7-8 4-10 4-11 5 1 4 2 1-6 3 2 8 6-1 5-2h3l-6 3v3l5-1v-2l4 1 2-2 5-2h3l-20 10v3l9-3 5-3 15-6 11-5 6-3v-4l-9 3-10 5 1-3 5-1 5-2v-2l6-1 2-1v-3l-6 1-10 4v-3l4 1 2-2 9-3-1-4-7 2-11 5-4 2 1-2 6-3 9-3 5-2-1-5-3-5zm-31 2-11 5-6 3v3l5-1 10-4v-2h5v-4zm-19 14-1 5h4l-1-5zm-5 2-5 3-9 5 1 2 5-1 5-2 6-2-1-5zm8 3-2 2v3l5-1-2-4zm-6 3-14 7v3l11-3 6-3v-4zm60 4-16 7-4 2-13 6-11 5-6 2-2 2-3-3v7l2 5 8 4 5 2h6l2-2 2 1v2h4l-1-6 2 1v4l5-1 11-6v-2l-5 1-5 3-4 1 1-2 15-6v-2l4-1 1-4-6 2-8 4-11 5h-3l11-5 16-8 4-4-3-1-11 5v2l-6 1-10 4v2h-4l1-2 14-5 3-3 4-1 11-5 1-4-5 1-6 3h-3l10-5 5-2v-4zm-58 1-4 2-9 4-2 1 2 5 1-4 9-1 3-2h2v3l3-1v-2h-2v-5zm59 5m-63 15-2 2 2 3h2l1 2v-7zm7 19-1 91 1 2 33 6 13 4 4-2 9-8 8-10-1-5-16-35-8-16-9-10-7-6-13-6z" fill="#C7CBC3"/>
<path transform="translate(604,392)" d="m0 0h25l1 1v16l2 1-10-1v157l-3-2-5-1v19l-2 4-5 1h-17l-3-2-1-3v-19h-5v13l-1 8-4 3h-19l-4-3-1-21h13l4-2 1-2v-10l-3-6-8-4-17-5-12-8-10-8v-6l1-2 3-1h12v-19l1-3 2-1 13-1 1-21 6-2h10l1-22 3-1 12-1 2-21 1-1 15-1v-12z" fill="#B8D0F3"/>
<path transform="translate(923,598)" d="m0 0 4 2 21 12-1-3h19v347h-17l-1-152-23-14-2-3v-34l5 2 17 11 3 1-4-4-20-12-1-2v-34l4 1 15 9 6 3-4-4-20-12-1-1v-35l5 2 17 10 3 1v-2l-5-2-19-12-1-1v-35l5 2 18 11 3 1-3-3-19-12-3-1-1-2z" fill="#4972C0"/>
<path transform="translate(1071,461)" d="m0 0 8 10 12 9 8 9 9 14 19 38 10 22 1 2-5 5-16 8-10 1-13-16-13-17h-1l5 32v7l-11 7-11 4h-15l-9-2-2-2-6-25-12-61-4-27v-5l2-1 25-1 13-4 15-6z" fill="#3D4561"/>
<path transform="translate(638,620)" d="m0 0 4 1 22 13 16 10 32 19 16 10 20 12 56 34 11 7v1h-177z" fill="#F8FBFD"/>
<path transform="translate(622,409)" d="m0 0 14 1 1 1v11l-4-1v2l5 2 8 5 15 9v35l-4-1-25-15-1 1 10 7 11 6 9 6 1 5v31l-5-2-20-12-8-5-4-2 4 4 7 4v2l5 1 7 5 11 6 3 3v22l-1 12-5-2-17-10-10-6-4-2 4 4 10 6 17 10 5 3v36l-12-6-17-11-7-3 4 4 12 7 20 12 1 35-5-1-20-12v-2l-4-1-4-2 4 4v2l4 1v140l-10-1-5-2z" fill="#4973C2"/>
<path transform="translate(897,91)" d="m0 0h46l15 2-1 3-7 1h-6l-2 1v3l4 3-28 3-20 1-22 7-9 2-9 3-9 2-12 6-9 4-13 6-6 4-5 9-4 5-8 6-21 7-8 3-7 6-16 10-13 6-12 5-12 4h-9l-12 4-7 3-11 3-10 2-5 5-3 5-6 2h-22v-1l21-2 5-2 1-1 1-9v-2l-2 3-1 7-4 3-8 1-34 3-16 1h-15v1h-21l4-3 9 1h5v-1l45-3 23-3 6-2-2-8 1-2h2v-2l14-11 18-11 11-7 4-4 22-13 25-14 15-8 28-13 26-11 36-12 25-6 25-4z" fill="#EFFCFE"/>
<path transform="translate(460,392)" d="m0 0h25l1 2v21h6l1-22 1-1h24l1 1 1 21 5 1 1-16 1-6 3-1h22l1 5v24l-1 1-15 1-1 22-15 2-1 20-2 2-15 1v21l-5 2h-9l-1 2-5-6 6-12 2-10-4 13-4 7h-2l2-6 1-4-3 7-4-2v-2l-3-1v-3l-3-1-1-5-2 1-2 4-9 6-2 2h-4l1-3h2l1-4 12-19-1-1-8 14-9 13-2 10v15h-15l-10-5-5-4-5-10-3-12v-9l4-12 9-15 7-6 2-3 7-4 5-2 5-1-16 24-10 16-7 12 7-11 22-34 9-10 4 1h3l-2 6-3 1 1 2-9 14-7 11-8 13v1l10-16 11-17 3-5h2l2-5 2-4 5 1 11 7 5 7-4 9 3-5 2-2 2 3v3l-3 3h4v2h4l1 7v-12l-4-11-6-8-8-6-7-3-8-2v-23z" fill="#B7CFF3"/>
<path transform="translate(512,645)" d="m0 0h7l5 4 5 8 2 14v13l-2 20-4 24-5 31-4 35-1 15 3 11 10 5-2 5-3 4v2l3 1 2-5 3-4 4 1-4 7-2 4 4-1 5-8 4 1-1 4-1 2h-2v6l4-4 3-5 6 1 13 8 2 3-1 6-4 5-6 4-3 1h-17l-19-6-18-3-8-4-5-7-1-3v-13l1-12-1-54 1-46 3-24 2-10-4-5-5-5 3-7 7-8 13-8z" fill="#FDB4A2"/>
<path transform="translate(1084,585)" d="m0 0 2 2 9 38 5 15 13 30 8 27 15 59 9 19 2 7v7l-7 7-14 8-15 12-10 4h-7l-8-3-5-6-1-6 3-6 13-13 6-5 7-9 6 1 7-2-2-14h-12l-11-29-8-19-7-17-11-25-12-23-12-36-3-13h19l11-4z" fill="#FDB5A2"/>
<path transform="translate(422,703)" d="m0 0h1v25l-3 9-6 8-12 10-13 8-23 12-24 11-21 10-17 10-7 6-7 9-2 10h-7l-5-1 1 3 11 3v3h-12v2l11 2v5l-12-2v4l11 1 1 1v10l-2 10-5 5-9-2-6-4-6-8-3-11-3-27-2-6v-13l3-6 8-6 19-6 11-7 12-9 18-13 12-9 17-12 17-10 11-5h2l-1-15 20-1z" fill="#FDB5A2"/>
<path transform="translate(1020,327)" d="m0 0 5 2 4 4 6 2h8l11-4 5-4h8l15 3-3 9-1 4v11l3 10 4 4v7l-3 11-3 18-1 10-9 4-13 3-8 1h-21l-12-5-5-3-3-7v-8h-2l-3-14-3-7-1-6v-8l4-18 1-15 5-1v-2z" fill="#DE435D"/>
<path transform="translate(413,399)" d="m0 0h13l9 3 6 4 7 8 1 4-16 8-10 9-7 8-7 14-3 14v11l2 8 1 17-1 9-6 14-2 4h-2l-2 5-12 19-9 14-6-1 2-30-2-30v-63l2-16 2-6 2-10 2-2 5 1 14 8h4l5-13 6-10z" fill="#F8C860"/>
<path transform="translate(451,577)" d="m0 0h3l7 8 14 14 8 7 12 11 10 9 12 11 8 7 4 3v7l-2 1-5-7-3-2h-7l-12 5-11 8-6 8-1 4 2 4 3 1 4 5v3l-11 5-5-1-9-7-12-11-16-16-5-6 1 16 2 15v9h-4l-3-7h-2l-3 9-4 4h-2l-4-16-1-6v-38l3-7 3-1v2l4 2 10 13 8 10 6 7 12 12 1-1-5-9-5-11-10-16-1-1v-11l-4-9h2l1-8-1-2-24 1-6-1 1-2 15-4 11-6 10-8z" fill="#527CCC"/>
<path transform="translate(1203,285)" d="m0 0h5l6 12 11 25 12-1 5 3 2 4v9l-7 8-9 7-15 9-4 4-11 9-12 10-16 12-13 8-10 5h-9l-16-8-10-7-14-12-10-9-7-8-3-6-1-5v-11l3-10 3-3 10 10 8 7 10 9 14 13 11 8 7 3 5-1 21-11 26-16 10-9 8-10-1-5-16-35 1-5z" fill="#FDB5A2"/>
<path transform="translate(1009,412)" d="m0 0 8 5 10 4h21l17-3 13-4 4 25 5 16 8 9 9 7 10 10 8 14 11 24 12 30 1 6-6 8h-2l-16-34-9-19-5-8-4-4-10-14-9-8-9-7-5-7-11 5-10 4-8 2-26 1-1-1-4-32-2-23z" fill="#FDB4A2"/>
<path transform="translate(621,241)" d="m0 0h20l9 1 6 4 8 8 14 8 6 3-1 2-230 1-6-1-1-6 3-8 8-4 19-2 35-1 12-1h25l26-1 26-2z" fill="#B8D0F4"/>
<path transform="translate(357,213)" d="m0 0 20 1 19 4 7 1 1-1h23l1 1 1 10 1 2-3 1h-9l-1 74-5-1 2-1-1-71-9-1-2-5-4 5-2 1h-10l-11-1-1-1-8 1-9 3-23 4-14 8-11 8-8 7-4 4-9 4-18 12-8 4-9 6-8 1-3 1 2-10 8-13 10-13 11-11 13-10 16-9 16-7 21-6z" fill="#EFFCFE"/>
<path transform="translate(1e3 333)" d="m0 0h1v13l-4 18v11l-1-2-5 5-10 9-14 12-12 10-21 14-23 14-19 10-25 10-11 3h-10l-4-4v-13l5-5 39-9 13-7 5-3h2v-2l10-8 14-12 11-9 12-11 8-7 8-8 8-7 9-9 8-7 4-4h2z" fill="#FDB5A2"/>
<path transform="translate(445,513)" d="m0 0h3l2 16 2 22 3 18v5l-14 14-14 9-10 4-15 3h-14v-10l-6-7 1-6 12-19 14-22 8-11 7-6 1-2h3v-2l5-2h3v-2z" fill="#F8C960"/>
<path transform="translate(260,392)" d="m0 0h23l2 1v22h5l1-1 1-21 1-1h24l2 2v21h6v-20l1-3h25l2 10v8l-16 8-5 5-7 9-6 14-9 26-1 2v9l2 1-4 9h-1l-3-19-6-15-9-15-13-16-9-10-7-8v-17z" fill="#B8D0F3"/>
<path transform="translate(452,417)" d="m0 0h10l10 3 9 6 7 8 4 9 1 4v14l-2-2-1-5-1-2h-2v-2h-4l1-3h2l-2-5-4 7-2-2 4-8-4-6-11-7-5-2-1 4-3 5h-2l-2 5-12 19-7 11-4 6-1-2 8-14 7-10 8-13 2-4v-3l2 1 1-4-5-2-9 10-11 18-10 15-8 13-1-2 8-14 9-14 8-12 8-11-6 1-1 3v-2l-9 5-5 6-5 5-7 12-4 12v9l4 15 3 4v3l4 2 8 5 7 1 11 1-1-15 2-10 10-15 8-13 2-1-1 4-11 18-2 4-3 3 5-2 5-4 5-3 2-4h2l2 5 2 1 1 3 6 5 3-9 2-2-1 7-4 7h2l2-6 3-7 3-10h1l-1 10-4 10-3 5 4 6-9 11-7 6-3-1-2-3-4 1-12 5-15 1v2l-5 2h-3v2h-3l-1 3-7 6-7 10-12 19-15 24h-4l-7-4 1-5 25-40h2l2-5 4-12 1-1 1-17-2-13-1-4v-11l3-14 7-14 9-10 9-8 13-7z" fill="#5F6BAB"/>
<path transform="translate(383,301)" d="m0 0 11 1 18 2 6 3 2 4v6l-1 1v16l-2 4-3 1-1-5-13 4-11 6-6 7-2 11-5 2-1 2v7l4 6 3 2-1 3h-2l-3-3-10 1-5-3-3-5-9-4-4-6-3-8v-8l3-5-1-5-2-4 1-7 4-6 5-4 9-2 3-6 5-4 8-3z" fill="#102C4D"/>
<path transform="translate(1235,648)" d="m0 0 5 2 15 14 8 7 11 10 12 8 9 9 2 7-3 8-7 11-7 18-7 9-6 4-10 2-8-5-3-4 1-10 7-21 2-11 7-3 3-2-1-5-5-6-5-1-6 5-5-2-19-13-8-6 2-5 11-13z" fill="#527BCB"/>
<path transform="translate(1065,227)" d="m0 0h12l9 5 6 8 1 3v7l-4 6-6 4h-6l1 7v12l-3 10-6 8-7 6-6 3h-3v-7l3-5 2-9-3-3-8-3-13-11-8-7-4 1-9 6v15l-4-5-3-8v-8l3-10 8-9 10-5 10-2h8l11 2 2-6 5-4z" fill="#112D4E"/>
<path transform="translate(1118,717)" d="m0 0h8l10 39 9 19 2 7v7l-7 7-14 8-15 12-10 4h-7l-8-3-5-6-1-6 3-6 13-13 6-5 7-9 6 1 7-2-2-14h-12l-11-29-1-6z" fill="#527BCB"/>
<path transform="translate(342,414)" d="m0 0h6l6 7 2 5v20l-7 32-6 13-8 3-8 19-1 7-7-2-10-3-8-3 1-7 6-16 2-5-2-3v-7l6-16 7-20 7-12 6-7z" fill="#F8C95F"/>
<path transform="translate(297,521)" d="m0 0 2 1 5 10 13 16 6 8 9 9 4 5v13l-3 3-4 1h-17l-4-4-1-19-4-1v16l-3 7-2 1h-19l-4-3-1-20-5-1v17l-2 6-3 1h-18l-4-2-1-10 16-11 12-9 10-9 9-10 8-13z" fill="#B8D0F3"/>
<path transform="translate(432,647)" d="m0 0 6 5 7 8 17 17 13 10 5 1 10-4-4 31-1 12h-62v-25l14-5-5-42z" fill="#F6FAFD"/>
<path transform="translate(453,422)" d="m0 0 4 1h3l-2 6-3 1 1 2-9 14-7 11-8 13v1l10-16 11-17 4-5v3l3 1 1 3 2 2 1 4 2 2 1 7-12 19-6 9-2 10v15h-15l-10-5-5-4-5-10-3-12v-9l4-12 9-15 7-6 2-3 7-4 5-2 5-1-16 24-10 16-7 12 7-11 22-34z" fill="#F2BA82"/>
<path transform="translate(300,512)" d="m0 0 8 1 8 3 10 4 9 14 10 15 5 6 10 13 3 3v2h2v2l5 2h2v2l5 2 5 3 3 5 4 5v7l-1 3h7v1l-12 2-5 1-10-3-9-3-6-1v-2l-5-1-1-10-8-13-12-14-8-8-4-6-12-15-5-10z" fill="#FDB4A2"/>
<path transform="translate(408,334)" d="m0 0h5l2 4h1l2 23v16l-2 7-4 4-3 1h-8l1 8 6 3-2 6-9 13-5-2-19-10v-4l4-2 2-5 1-12 1-3-5-4-2-4v-7l4-4h3v-8l4-7 7-6z" fill="#FCB4A2"/>
<path transform="translate(422,703)" d="m0 0h1v25l-3 9-6 8-12 10-13 8-23 12-24 11-21 10-17 10-4 1-4-3-5-1 3-5 23-12 23-11 16-9 17-11 8-6h2v-2l5-2v-2l7-6 4-7 1-5-4-8-6-7-3-2 20-2z" fill="#F0968E"/>
<path transform="translate(1023,260)" d="m0 0 4 1 11 10 11 8 7 3 3 3-2 9-3 5v13l2 9 3 4 15 2v1h-15l-9 6-7 2h-8l-7-3-3-2v-2l-5-1h-8v-1l13-2 4-5 2-7h-9l-5-5-3-10-2-18v-12l10-7z" fill="#FDB4A1"/>
<path transform="translate(451,577)" d="m0 0h3l7 8 14 14 8 7 12 11 10 9 12 11 8 7 4 3v7l-2 1-5-7-3-2h-7l-12 5-11 8-6 2-2-2-2-9v-15l-2-9-12-13-10-8-7-3h-7l-10 2-18 1-6-1 1-2 15-4 11-6 10-8z" fill="#4972C1"/>
<path transform="translate(278,789)" d="m0 0 3 1 2 9 4 6-1 5-3 4-1 3h2v2l4 1 1 7-1 4h-7l-5-1 1 3 11 3v3h-12v2l11 2v5l-12-2v4l11 1 1 1v10l-2 10-5 5-9-2-6-4-6-8-3-11-3-27-2-6v-13l3-6 8-6z" fill="#212643"/>
<path transform="translate(485,816)" d="m0 0 5 1h16l4 6v2l7-2v-2l6 1 5 3-2 5-3 4v2l3 1 2-5 3-4 4 1-4 7-2 4 4-1 5-8 4 1-1 4-1 2h-2v6l4-4 3-5 6 1 13 8 2 3-1 6-4 5-6 4-3 1h-17l-19-6-18-3-8-4-5-7-1-3v-13z" fill="#202541"/>
<path transform="translate(506,533)" d="m0 0 16 8 10 6 10 8 8 6-2 2-1 20-4 4h-20l-4-4v-20h-5v18l-3 5-2 1h-19l-4-3v-25l2-3 14-1 1-20z" fill="#B8CFF3"/>
<path transform="translate(996,373)" d="m0 0h2l6 15 1 11h2l1 8 1 1 5 51v4l-15-1-1-23h-15l-1-1-1-21-16-2v-11l-2-1 10-9 11-9 10-9z" fill="#F8FBFD"/>
<path transform="translate(487,495)" d="m0 0 5 1 18 14 16 12 14 10 16 5 9 4 5 5 1 3v10l-4 4-2 1h-10l-5-2-13-10-11-8-26-14-17-10-10-5 1-5 12-13z" fill="#FDB5A1"/>
<path transform="translate(964,255)" d="m0 0h7l8 6 7 6 9 5-1 2h-67l-80-1v-7l1-1 9-1 12-3 29-2 47-2z" fill="#B8D0F4"/>
<path transform="translate(1211,362)" d="m0 0 5 1 14 8 17 13 9 7-4 2-4 1-1 18-1 3h-5l-1-1-1-20-1-1h-24l-1 22h-6l-1-23-25 1-1 16-1 6h-6l-1-19-2-1 13-10 10-8 14-12z" fill="#F8FCFE"/>
<path transform="translate(1084,455)" d="m0 0 4 1 7 8 9 7 10 10 8 14 11 24 12 30 1 6-6 8h-2l-16-34-9-19-6-9-1-6h-2v-3h-2l-3-4v-3l-4-2-5-5-11-9-5-6 1-4 7-3z" fill="#3C4564"/>
<path transform="translate(997,364)" d="m0 0h1l1 11-1-2-5 5-10 9-14 12-12 10-21 14-23 14-19 10-25 10-11 3h-10l-1-2 8-1 16-8 22-12 20-12 11-8 18-12 17-12 12-9 16-13z" fill="#F1998F"/>
<path transform="translate(1235,648)" d="m0 0 5 2 15 14 8 7 11 10-1 7-4 6-3 3-6-7-5-1-6 5-5-2-19-13-8-6 2-5 11-13z" fill="#404C72"/>
<path transform="translate(1087,329)" d="m0 0 11 3 25 6 20 4 1 5-1 33-5-1-9-6-10-9-8-7-7-7-8-7-10-9z" fill="#F8FBFE"/>
<path transform="translate(462,424)" d="m0 0 5 1 11 7 5 7-4 9 3-5 2-2 2 3v3l-3 3h4v2h4l2 9v5l-2 1-4 13-4 7h-2l2-6 1-4-3 7-4-2v-2l-3-1v-3l-3-1-1-5-2 1-2 4-9 6-2 2h-4l1-3h2l1-4 12-19-2-9-3-3-1-4-2-4-2-1 1-5z" fill="#9FB7DE"/>
<path transform="translate(1118,717)" d="m0 0h8l10 39 1 6-11 6h-3l-3-11h-12l-11-29-1-6z" fill="#414D73"/>
<path transform="translate(929,168)" d="m0 0h6l5 5 1 2v6l-6 5-12 6-16 12-4 1-8-6-4-9-2-10 1-6 3-4h28z" fill="#F8CA61"/>
<path transform="translate(1022,109)" d="m0 0 6 2 17 9 14 10 16 13 13 13 10 13 8 13 7 15 1 5-2 4-4-8-8-9-5-4-8-13-8-8-12-9-3-3v-2l-3-1v-2l-4-2-9-10-6-4-8-7-10-10v-2l-3-1z" fill="#EFFCFE"/>
<path transform="translate(1015,474)" d="m0 0h14l2 4 4 1-4 4-1 3-1 19 1 15 3 15 6 28 2 9 4 9 7 8 3 2 7 2 1 3h-15l-9-2-2-2-6-25-12-61-4-27z" fill="#404E75"/>
<path transform="translate(408,494)" d="m0 0 2 4 1 10 4 1 3-2 8 1 1 7v1l4-1 5 1-3 2-5 1v2h-3l-1 3-7 6-7 10-12 19-15 24h-4l-7-4 1-5 25-40h2l2-5 4-12 1-1 1-17z" fill="#DE435D"/>
<path transform="translate(417,626)" d="m0 0h2v2l4 2 10 13 8 10 6 7 17 17h-3l-23-23-5-6 1 16 2 15v9h-4l-3-7h-2l-3 9-4 4h-2l-4-16-1-6v-38l3-7z" fill="#4972C1"/>
<path transform="translate(1084,585)" d="m0 0 2 2 9 38 5 15 13 30 8 27 4 15v5h-5l-3-12-7-19-15-36-10-32-5-10-5-4-16-3-8-4v-1l16-2 12-6z" fill="#F0988D"/>
<path transform="translate(1077,414)" d="m0 0h1l4 25 4 13v3l-7 4-4 1 1 4 6 7 11 8 4 5 2 1 3 5v2h2v3h2l1 6-3-3-10-14-9-8-9-7-5-7-6 2-4-2 2-13-1-9-3-5-10-5-13-5v-1l-7-1v-1l19-1 17-3z" fill="#F0958E"/>
<path transform="translate(664,519)" d="m0 0 5 2 10 6 16 10v36l-11-6-20-12z" fill="#B4CCF1"/>
<path transform="translate(730,520)" d="m0 0 5 2 26 16v36l-10-5-21-13z" fill="#B7CEF2"/>
<path transform="translate(664,480)" d="m0 0 10 5 7 5 11 6 3 2v36l-8-4-22-13-1-1z" fill="#B6CEF1"/>
<path transform="translate(697,500)" d="m0 0 4 2 27 16v36l-5-2-26-16z" fill="#B5CDF1"/>
<path transform="translate(763,540)" d="m0 0 4 2 12 7 15 9v36l-4-2-16-9-11-7z" fill="#B2CBF1"/>
<path transform="translate(697,539)" d="m0 0 5 2 7 5 11 6 8 5v36l-11-6-20-12z" fill="#B3CBF0"/>
<path transform="translate(730,598)" d="m0 0 5 2 25 15 1 1v35l-4-1-25-15-2-2z" fill="#F2F6F9"/>
<path transform="translate(730,559)" d="m0 0 5 2 26 16v36l-11-6-16-10-4-2z" fill="#F7FAFC"/>
<path transform="translate(664,558)" d="m0 0 5 2 9 6 9 5 8 5v35l-4-1-25-15-2-2z" fill="#F6FAFC"/>
<path transform="translate(763,618)" d="m0 0 5 2 25 15 1 1v35l-6-2-7-5-9-5-9-6z" fill="#F4F9FC"/>
<path transform="translate(697,578)" d="m0 0 5 2 20 12 6 4v34l-2 1-17-10-11-7-1-1z" fill="#F4F8FB"/>
<path transform="translate(730,482)" d="m0 0 5 2 14 8 8 5 4 3v35l-5-2-22-13-4-4z" fill="#B6CEF2"/>
<path transform="translate(763,502)" d="m0 0 5 2 14 8 11 7 1 1v35l-12-6-19-12z" fill="#B3CBF1"/>
<path transform="translate(697,462)" d="m0 0 5 2 15 9 11 7v35l-5-2-25-15-1-1z" fill="#B3CCF1"/>
<path transform="translate(664,442)" d="m0 0 5 2 9 6 11 6 6 4v35l-5-2-25-15-1-1z" fill="#B2CBF1"/>
<path transform="translate(697,617)" d="m0 0 5 2 22 13 4 3v35l-5-2-26-16z" fill="#F0F5F9"/>
<path transform="translate(730,637)" d="m0 0 5 2 25 15 1 1v35l-11-6-20-12z" fill="#F2F6F9"/>
<path transform="translate(763,657)" d="m0 0 5 2 25 15 1 1v35l-11-6-20-12z" fill="#EFF4FA"/>
<path transform="translate(763,579)" d="m0 0 5 2 26 16v35l-4-1-17-10-9-6z" fill="#F5F9FC"/>
<path transform="translate(664,597)" d="m0 0 5 2 25 15 1 1v15l-1 19-6-2-19-12-5-3z" fill="#F5F9FC"/>
<path transform="translate(797,522)" d="m0 0 5 2 16 10 9 5v36l-5-2-13-8-12-7z" fill="#B6CEF3"/>
<path transform="translate(797,599)" d="m0 0 14 8 16 10v36l-11-6-14-9-5-3z" fill="#F5F9FC"/>
<path transform="translate(797,561)" d="m0 0 5 2 17 10 8 5v36l-6-3-17-10-7-5z" fill="#F5F9FC"/>
<path transform="translate(830,658)" d="m0 0 11 6 19 12v35l-5-2-25-15z" fill="#F6F9FC"/>
<path transform="translate(830,581)" d="m0 0 6 2 11 7 13 8v36l-11-6-10-6-9-6z" fill="#F7FAFD"/>
<path transform="translate(830,619)" d="m0 0 14 8 16 10v35l-4-1-25-15-1-1z" fill="#F6F9FC"/>
<path transform="translate(830,542)" d="m0 0 5 2 25 15v36l-11-6-19-11z" fill="#B6CEF3"/>
<path transform="translate(797,638)" d="m0 0 11 6 19 12v35l-6-2-14-9-10-6z" fill="#F6F9FC"/>
<path transform="translate(830,697)" d="m0 0 11 6 18 11 1 1 1 34-2 1-20-12-9-6z" fill="#F7FBFD"/>
<path transform="translate(797,677)" d="m0 0 8 4 21 13 1 1v35l-11-6-10-6-9-6z" fill="#F5F9FC"/>
<path transform="translate(350,474)" d="m0 0h1l-1 25-1 50-2 3-6-7-14-22-2-4 2-9 7-16 2-2 7-1 3-9z" fill="#B7CEF2"/>
<path transform="translate(512,645)" d="m0 0h7l5 4 4 7 1 8v32l-3 20-3-1v-8l1-5-2-12-1-15-3-6-3-3h-10l-16 6-4 1-1 2-3-5 5-9 9-8 14-7z" fill="#EF948D"/>
<path transform="translate(863,717)" d="m0 0 10 5 18 11 1 1v35l-5-2-15-9-9-6z" fill="#B4CCF2"/>
<path transform="translate(863,639)" d="m0 0 14 8 13 8 2 4v32l-5-1-23-14-1-1z" fill="#F6F9FC"/>
<path transform="translate(863,601)" d="m0 0 5 2 22 13 2 4-1 32-6-2-7-5-11-6-4-3z" fill="#F6F9FC"/>
<path transform="translate(863,678)" d="m0 0 11 6 17 10v36l-12-6-16-10z" fill="#F5F9FC"/>
<path transform="translate(863,562)" d="m0 0 4 2 11 6 11 7 2 2 1 34h-3l-19-11-7-5z" fill="#F6FAFC"/>
<path transform="translate(1107,501)" d="m0 0 4 4 10 19 13 28 4 9v2l4-4 2-3h2l8 15 7 10 9 12 7 8 22 15 14 11 14 12-1 2-19-13-9-7-14-9-10-6-9-7-7-8-10-13-3-4-9 3-19 6-4-1-1-3-3-1 10-2 18-9-1-4-14-30-15-30z" fill="#F0988E"/>
<path transform="translate(1109,772)" d="m0 0 6 1h5v8l-6 13 2 4 1 5-10 7-12 5-10 1-4-5-1-6 3-6 13-13 6-5z" fill="#5684D6"/>
<path transform="translate(894,658)" d="m0 0 5 2 16 10 6 4v35l-5-2-17-10-5-3z" fill="#F0F5F9"/>
<path transform="translate(894,619)" d="m0 0 11 6 15 9 1 2v34l-4-1-15-9-8-5z" fill="#F0F5F8"/>
<path transform="translate(894,697)" d="m0 0 5 2 21 13 1 1v35l-5-2-20-12-2-2z" fill="#F7FAFD"/>
<path transform="translate(1266,701)" d="m0 0 1 2h2l2 6v18l2 1 2 4-1 6-8 11-6 5-5 2-6-4-3-4 1-10 7-21 2-11 7-3z" fill="#5684D6"/>
<path transform="translate(894,736)" d="m0 0 5 2 10 6 11 6 1 2v34l-4-1-23-14z" fill="#B2CBF1"/>
<path transform="translate(1147,343)" d="m0 0 17 2 20 4 9 3-1 3-20 12-18 10-7 3z" fill="#F8FBFE"/>
<path transform="translate(461,443)" d="m0 0 5 5 1 7-12 19-6 9-2 10v15h-15l-10-5-5-4v-2l4-1 6-10 2-1-2 5-5 8h4l7-11 9-14 7-12 7-10z" fill="#F7CF85"/>
<path transform="translate(894,581)" d="m0 0 5 2 20 12 2 4v32l-5-1-7-5-9-5-6-4z" fill="#F6F9FC"/>
<path transform="translate(923,715)" d="m0 0 4 1 15 9 7 5v35l-5-2-20-12-1-2z" fill="#B6CEF2"/>
<path transform="translate(923,637)" d="m0 0 5 2 21 13v35l-4-1-21-13-1-1z" fill="#F0F5F9"/>
<path transform="translate(923,598)" d="m0 0 4 2 20 12 2 2v34l-5-1-17-11-3-1-1-2z" fill="#F1F6FA"/>
<path transform="translate(923,676)" d="m0 0 5 2 20 12 1 1v35l-5-2-20-12-1-1z" fill="#F1F6F9"/>
<path transform="translate(923,753)" d="m0 0 5 2 19 12 2 1v35l-4-1-20-12-2-3z" fill="#B6CEF3"/>
<path transform="translate(467,454)" d="m0 0 1 3-13 20-1 3-3 3 5-2 5-4 5-3 2-4h2l2 5 2 1 1 3 6 5 3-9 2-2-1 7-4 7h2l2-6 3-7 3-10h1l-1 10-4 10-3 5 4 6-9 11-7 6-3-1-3-5 9-7 4-6-5 5-2-1-2 5-6 4-1-3-3-1-6-9v-2l-3-1-2-5-1-2 10-15 8-13z" fill="#3D507E"/>
<path transform="translate(637,464)" d="m0 0 4 2 11 6 9 6 1 5v31l-5-2-20-12z" fill="#B2CBF1"/>
<path transform="translate(1097,244)" d="m0 0h1v9l-4 6-7 5-3 1-1 6 1 12 1 3-3 5-8 11-2 5v9l4 6 11 6-1 5-7-3-5-1v-2l-15-1-4-5-2-9v-6l12-6 8-9 3-7 1-5v-19l8-2 5-4 3-9 1 3h2z" fill="#F7FCFE"/>
<path transform="translate(637,503)" d="m0 0 5 2 10 6 9 5 1 2v22l-1 12-5-2-17-10-2-2z" fill="#B3CCF1"/>
<path transform="translate(1203,285)" d="m0 0h5l6 12 11 25 2 2 2 6 1 4 4 2v4l-14 7-3-2-2-12-8-16-11-24 1-5z" fill="#F8CA61"/>
<path transform="translate(637,542)" d="m0 0 6 2 8 5 10 6v36l-12-6-12-8z" fill="#B6CEF3"/>
<path transform="translate(637,426)" d="m0 0 6 2 13 8 5 3v35l-4-1-20-12z" fill="#B7CFF3"/>
<path transform="translate(637,581)" d="m0 0 4 1 20 12 1 35-5-1-20-12-1-3z" fill="#F2F7FC"/>
<path transform="translate(776,218)" d="m0 0h23l1 1v11l-1 1h-9v53l-1 100-3-1v-152h-10l-1-1v-11z" fill="#B7CFF3"/>
<path transform="translate(412,456)" d="m0 0 1 3-3 9v9l4 15 3 4v3l4 2 8 5 7 1 11 1-1-15 1-5 2-4 2 4 8 10 2 4h3l1 3 2-3h2l1-3h2v-2l4-2 2-3 2 1-5 7-12 9-12 5-11 1-10 1-4 1-2-1 2-4v-4l-4 1-4-1-4 2-4-2-1-10-4-16v-11l2-6h2l-1-3h2l1-5z" fill="#5279C6"/>
<path transform="translate(310,484)" d="m0 0 12 6 13 3-4 10-5 13v4l-7-2-10-3-8-3 1-7 6-16z" fill="#202541"/>
<path transform="translate(456,433)" d="m0 0 1 3 3 1 1 3 2 2-4 5-6 10-9 14-9 15-7 10-2 3h-5l7-12-4 5-3 5h-4l2-5 6-10 4-8 4-4 7-12 10-15z" fill="#F2B982"/>
<path transform="translate(412,636)" d="m0 0h1l1 36 4 19 2 2 4-5 3-7 3-1 2 4v4l5-1 1 10-12 5-9 3-6 1-1-2 1-2h2v-7l-1-3-6-1-2-5 1-7 2-5 1-5 1-3v-7l2-12z" fill="#537CCC"/>
<path transform="translate(380,384)" d="m0 0 2 1-1 5h8l8 2 3 1 1-3 1 7 6 3-2 6-9 13-5-2-19-10v-4l4-2 2-5z" fill="#FDB7A0"/>
<path transform="translate(464,507)" d="m0 0 4 1 1 3 4 1-1 4h-2l-1 22-1 1-16 1v11h-1l-3-37 13-5z" fill="#B7CFF2"/>
<path transform="translate(404,218)" d="m0 0h23l1 1 1 10 1 2-3 1h-9l-1 74-5-1 2-1-1-71-9-1-2-5v-7z" fill="#B8D0F4"/>
<path transform="translate(1078,355)" d="m0 0 7 6 4 5v2l3 1 7 8 11 10 10 7 10 5 8 1 18-4 8-3 4 1-1 4-14 8-6 3h-9l-16-8-10-7-14-12-10-9-7-8-3-6z" fill="#F19B8F"/>
<path transform="translate(408,494)" d="m0 0 2 4 1 10 4 1 3-2 8 1 1 7v1l4-1 5 1-3 2-5 1v2h-3l-1 3-7 6-7 10-5-1-6-4 4-8 3-10 1-1 1-17z" fill="#D9435E"/>
<path transform="translate(364,392)" d="m0 0h16l-1 7-4 4h-2v4l6 2 15 8 3 1 9-14 1-4-5-2-1-1v-5h17l1 1v6l-8 1-2 6-8 13-2 4-5-2-24-14h-11v-13z" fill="#B8D0F4"/>
<path transform="translate(1030,317)" d="m0 0h10l12 2 2 1 1-2 3 6 1 1 15 2v1h-15l-9 6-7 2h-8l-7-3-3-2v-2l-5-1h-8v-1l13-2 4-5z" fill="#FCB3A0"/>
<path transform="translate(1143,248)" d="m0 0 4 2v130l-4 1z" fill="#B8CFF3"/>
<path transform="translate(1075,459)" d="m0 0h3l3 6 9 8 9 7 9 11 10 18 15 30 7 15 2 4-1 4-3 1-16-34-9-19-6-9-1-6h-2v-3h-2l-3-4v-3l-4-2-5-5-11-9-5-6z" fill="#262D49"/>
<path transform="translate(1085,370)" d="m0 0 3 1 14 14 11 9v18l-1 4-6-1-1-22-24-1 1-11 2-6z" fill="#F8FAFB"/>
<path transform="translate(453,425)" d="m0 0h1l2 7-9 14-7 11-8 13-4 7-2 5-9 14-4-4-1-6 4-2 15-25 10-15 5-9h2l2-5z" fill="#DD876F"/>
<path transform="translate(1097,244)" d="m0 0h1v9l-4 6-7 5-3 1-1 6 1 12 1 3-3 5-8 10-8 1-1 3h-6l-1 3-4 2-1-4 12-6 8-9 3-7 1-5v-19l8-2 5-4 3-9 1 3h2z" fill="#EFFCFE"/>
<path transform="translate(830,727)" d="m0 0h30l1 22-2 1-20-12-9-6z" fill="#B4CDF2"/>
<path transform="translate(730,559)" d="m0 0 5 2 13 8v14l-4 4h-13v8h-1z" fill="#B6CEF2"/>
<path transform="translate(1217,673)" d="m0 0 11 7 19 13 4-2 4-3 5 1 7 9-1 4-6 4h-4v5h-1v-10h2l-1-4-4 4h-8l1-5h-1l-1 4h-5l1-5-5-2-11-10 2-1v-2h-4-2z" fill="#EAF7FD"/>
<path transform="translate(664,558)" d="m0 0 5 2 9 6 4 2-1 15-4 4h-13z" fill="#B7CFF3"/>
<path transform="translate(894,697)" d="m0 0 2 1-1 29h25v-14h1v35l-5-2-20-12-2-2z" fill="#B0C8EC"/>
<path transform="translate(426,392)" d="m0 0h26l1 3v22l-4 1-5-8-7-6-6-3-5-1z" fill="#B8CFF3"/>
<path transform="translate(442,420)" d="m0 0h8l1 2 2 1-9 10-11 18-10 15-8 13-1-2 8-14 9-14 8-12 8-11-6 1-1 3v-2l-9 5-5 6-5 5-7 12-3 3-2 6h-2l-1 3 1-8 6-14 7-9 10-10z" fill="#486AAE"/>
<path transform="translate(465,450)" d="m0 0 2 3-2 5-10 16-6 9-2 10v15h-15l-2-3 10-16 2-2 2-1 2-6 10-16 4-5z" fill="#F5CC84"/>
<path transform="translate(797,561)" d="m0 0 5 2 14 8-1 12-4 4h-13l-1-1z" fill="#B6CEF3"/>
<path transform="translate(1148,213)" d="m0 0 3 2-1 3 10-3 2-2 3 2-2 2-4 1-1 3 4-1 1-2 5-1 6-3 4 1-2 2-8 3-10 5-1 4-10 2-9-1-5-6-2-1 1-5 9-1 3-2 2 1v3l3-3h-2z" fill="#C5CBC6"/>
<path transform="translate(1294,699)" d="m0 0 2 1 1 5-3 8-7 11-7 18-7 9-6 4-10 2 1-3 6-4 7-9 14-25 6-8z" fill="#404E76"/>
<path transform="translate(467,454)" d="m0 0 1 3-13 20-1 3-3 3 6-1 3 1v-4l3-1 1 5 4-5 4 1-4 8 5-3-1 5h1l4-2-1 3h-2v4l-4 1v-2h-2l-1 5h-3l2-7-2 2v2l-3 2 2 1 1 1-1 4-3-1-6-9v-2l-3-1-2-5-1-2 10-15 8-13z" fill="#292F4D"/>
<path transform="translate(863,562)" d="m0 0 4 2 11 6 5 4-1 9-4 4h-14l-1-1z" fill="#B6CFF3"/>
<path transform="translate(1145,785)" d="m0 0h2l-1 5-8 7-12 7-15 12-10 4h-7l-8-3v-2l12-2 14-7 16-10 15-8z" fill="#3D4869"/>
<path transform="translate(453,422)" d="m0 0 4 1h3l-2 6h-3l-2-3-5 9h-2l-2 6-15 23-12 20-2 2h-4l-1-13 6-5v7l1-1 12-19 13-20 8-10z" fill="#F6CE85"/>
<path transform="translate(893,170)" d="m0 0h32v2h-25l3 11-1 9-3 8 6 4-2 1-8-6-4-9-2-10 1-6z" fill="#F7D38A"/>
<path transform="translate(894,282)" d="m0 0 10 2 10 3 4 4-1 6-4 1-1 4-5 7-4 13-9 7-7 1-1-5 11-7 6-7 5-9v-3l-5-5-1-7-2-2-6-2z" fill="#EFFDFF"/>
<path transform="translate(1137,761)" d="m0 0 4 5 5 12 1 7-7 6-10 5-2-1 3-3 1-6 1-17v-3l-3-1z" fill="#4972C1"/>
<path transform="translate(1274,682)" d="m0 0 5 2 9 7 7 7-3 10-9 13-3 6-1-3 3-9 1-6-1-11h-2l-1-7h-2l-3-3-1-2z" fill="#4972C1"/>
<path transform="translate(488,452)" d="m0 0h3l2 9v5l-2 1-4 13-4 7h-2l2-6 1-4-3 7-4-2v-2l-3-1v-3l-3-1-2-6 2-1 1-3 3-1v3l5 2 4 2v-4h3v-9l-2-1v-2z" fill="#5274BD"/>
<path transform="translate(763,618)" d="m0 0 5 2 25 15 1 1v5l-4-2-2 1-2-4-11-4-3-1-3 2-3 8h-2v12h-1z" fill="#E7EEF4"/>
<path transform="translate(459,438)" d="m0 0 4 4-4 5-6 10-9 14-9 15-7 10-2 3h-5l8-14 8-11 8-14 9-13z" fill="#F6CA88"/>
<path transform="translate(325,431)" d="m0 0 1 2-6 14-1 3 1 25-5 12-4-2v-2h-2l-1-2v-7l6-16 7-20z" fill="#F7D28A"/>
<path transform="translate(364,392)" d="m0 0h16l-1 7-4 4h-2v3l-14 1v-13z" fill="#B8CFF3"/>
<path transform="translate(1241,653)" d="m0 0 4 2 8 7 12 11 7 6-1 3-10-8-5-3-2 1-3-1-4 3-5-2-1-7 2-3v-4l-3-4z" fill="#3E4868"/>
<path transform="translate(953,345)" d="m0 0 3 1-8 8-17 8-13 5-1 2h-3l1-4 5-4 4-4 4-2 1-2 12-4 4-2z" fill="#EFFDFF"/>
<path transform="translate(1052,301)" d="m0 0h1l1 19-15-2h-7v-5l13-7 5-4z" fill="#F0978E"/>
<path transform="translate(1078,459)" d="m0 0h2l6 8 14 11 9 11 10 18 24 48-1 4-3-5-12-25-14-28-7-11-8-10-14-11-6-7z" fill="#537CCC"/>
<path transform="translate(1179,168)" d="m0 0h3v7l-1-4-6 3h-5l3-1v-2l5-2zm-16 7 4 2v3l4-2 10-3v2l-11 5h-2l1 3h3l1-2h5l1-3h3l2-4 2 2h2l-1 3-16 7-11 5-10 4v3l2 2-2 3-2-2-1-4-2-2 2-3 5-1 10-3v-2h5v-4l-9 4h-4l1-3 4-1 2-2 4 1-1-4-2-2z" fill="#C7CBC3"/>
<path transform="translate(1023,260)" d="m0 0 4 1 11 10 11 8 6 2v5l-9-3-10-7-11-10-2-1v2l-4 3h-5l-1-3 9-6z" fill="#EF918C"/>
<path transform="translate(662,483)" d="m0 0h1l1 32 11 7v2l-4-1-8-4v33h-1l-1-36-5-2-9-5-8-5-3-1v-2l-5-2-6-4v-2l6 2 18 11 13 8z" fill="#232844"/>
<path transform="translate(1112,756)" d="m0 0h6l3 3 2 12-2 2-9 1-3-5-1-10z" fill="#F1F7FC"/>
<path transform="translate(849,563)" d="m0 0 5 1 1 21 5 1v9l-11-6-2-1z" fill="#F6F9FC"/>
<path transform="translate(408,334)" d="m0 0h5l1 5-24 11-8 3 2-5 8-7z" fill="#EF928D"/>
<path transform="translate(467,457)" d="m0 0 4 2 1 2-3 9-3 5-9 6-2 2h-4l1-3h2l1-4z" fill="#F2B580"/>
<path transform="translate(482,490)" d="m0 0 4 2 2 3-9 11-7 6-3-1-3-5 9-7 6-8z" fill="#202641"/>
<path transform="translate(292,804)" d="m0 0h6l3 4-8 9-5 5v-2l-4-1v-2h-2l1-5 4-6z" fill="#F5CD8B"/>
<path transform="translate(968,218)" d="m0 0h8l4 8-1 2-11-5v-2l-9 2-4 2-2 5-12-1 2-6 10-2 7-2z" fill="#EFFDFF"/>
<path transform="translate(782,563)" d="m0 0 5 1 1 21 6 2v7l-4-2-9-5z" fill="#F4F8FB"/>
<path transform="translate(424,519)" d="m0 0h4v2h-3l-1 3-7 6-7 10-5-1-6-4 5-10 3 1v2h2l2 2 8-7z" fill="#4E71B7"/>
<path transform="translate(1217,673)" d="m0 0 11 7 16 11-1 4 1 4-1 1h-5l1-5-5-2-11-10 2-1v-2h-4-2z" fill="#EFFCFE"/>
<path transform="translate(465,427)" d="m0 0 2 4-1 2h2l1-3 2 1-1 7h2l1 3-3 3v2l-6 1-2-2-1-4-2-4-2-1 1-5 2-2 2 3 2-4z" fill="#96ABD4"/>
<path transform="translate(507,806)" d="m0 0 7 1 4 13-1 3-7 2-5-9-1-7z" fill="#F5D28F"/>
<path transform="translate(461,443)" d="m0 0 1 2-6 11-7 10-7 12-14 21-1 6-5-2-5-4v-2l4-1 6-10 2-1-2 5-5 8h4l7-11 9-14 7-12 7-10z" fill="#CF425D"/>
<path transform="translate(437,431)" d="m0 0h2l-2 4-12 18-5 8-4 4-4 8h-2l1 9h-1l-1-5v-9l4-12 3-5 2 3 1 4 12-19z" fill="#ED9777"/>
<path transform="translate(456,433)" d="m0 0 2 3-2 6-6 9-4 7-10 15-3-1 3-8 7-10z" fill="#F6CF88"/>
<path transform="translate(436,436)" d="m0 0h2l-1 5-11 18-7 11-2 3h-2l-1-6 4-6 3-3 9-14z" fill="#F7C66D"/>
<path transform="translate(467,454)" d="m0 0 1 3-13 20-1 3-3 3 6-1 2 8 1 6 3 2 1 1-1 4-3-1-6-9v-2l-3-1-2-5-1-2 10-15 8-13z" fill="#2B3454"/>
<path transform="translate(453,421)" d="m0 0 11 1 12 6 3 3-1 2-11-7-5-2-1 4-3 5h-2l-2 5-12 19-7 11-4 6-1-2 8-14 7-10 8-13 2-4v-3l2 1 1-4-4-2z" fill="#954C70"/>
<path transform="translate(1133,219)" d="m0 0 5 1 3 4h5l2 1 4-2 2-4 3 1v9l-10 2-9-1-5-7z" fill="#B8D0F4"/>
<path transform="translate(453,428)" d="m0 0 3 4-9 14-7 11-6 9-3-3 6-10 14-22z" fill="#F7D07D"/>
<path transform="translate(629,457)" d="m0 0 5 1 16 10 10 6h3v3l5 2v2h-3l-1 34h-1v-32l-2-1-1-4-11-7-9-5-10-7z" fill="#2C314E"/>
<path transform="translate(1097,244)" d="m0 0h1v9l-4 6-7 5-4 1-5 4-1-2v-7l8-2 5-4 3-9 1 3h2z" fill="#E9F7FB"/>
<path transform="translate(929,168)" d="m0 0h6l5 5 1 2v6l-6 5h-2l-4-11v-5l-3-1z" fill="#F8CA68"/>
<path transform="translate(447,485)" d="m0 0 1 3-1 5v15h-15l6-9z" fill="#F3BB81"/>
<path transform="translate(462,424)" d="m0 0 5 1 11 7 1 4-5-2-1 3h4l-1 4-5 9h-2v2h-2v-5l3-1-1-3 3-3v-2h-2v-7l-4 2-1-5-3 4-2-1 1-4z" fill="#CAD9EA"/>
<path transform="translate(1277,730)" d="m0 0h2l-2 7-1 4 2 1-1 4-5 6-8 4-7 1 1-3 6-4 7-9z" fill="#3D4766"/>
<path transform="translate(715,563)" d="m0 0 5 1 1 20 6 3v5l-5-2-8-5z" fill="#F7FAFC"/>
<path transform="translate(452,417)" d="m0 0h10v1h-7v2l2-1h8l7 3 3 3 2 1v2h3v2h3l1 5 2 1 2 5-1 3-6-9v-2h-2l-5-5-10-5-11-1-2 1h-6v-1h5v-2h-5l1-2z" fill="#527BCA"/>
<path transform="translate(772,670)" d="m0 0 11 1v2l3 1 6 8-1 4-3-1-3-6-5-4h-6l-3 6 1 8-2 2-3-5 1-10 3-5z" fill="#F0FCFE"/>
<path transform="translate(648,563)" d="m0 0 5 1 1 20 7 3-1 4-12-7-1-1v-9z" fill="#F5F9FC"/>
<path transform="translate(1060,132)" d="m0 0 4 2 11 9 13 13 10 13 8 13 2 4-1 3-6-11-10-13-8-10-16-16-7-6z" fill="#F9FCFE"/>
<path transform="translate(451,422)" d="m0 0 2 1-9 10-11 18-10 15-8 13-1-2 8-14 9-14 8-12 8-11-6 1-1 3v-2l-6 4-2-1 5-4 8-4z" fill="#CB435D"/>
<path transform="translate(1076,284)" d="m0 0 2 2v5h2l-1 4-5 6-8 1-1 3h-6l-1 3-4 2-1-4 12-6 8-9z" fill="#EAF2FB"/>
<path transform="translate(230,622)" d="m0 0h16l-3 2h14l4-1h9l-1 2-22 2h-12v-1l-6-1v2h-21l-7 1 1-2 5-1 21-1z" fill="#EFFDFF"/>
<path transform="translate(1200,209)" d="m0 0h2v2l-16 7-4 2-13 6-11 5-6 1-1 3-3-2v-3l9-2 9-4 5-3 15-6 11-5z" fill="#CBCCBF"/>
<path transform="translate(473,468)" d="m0 0 4 1 6 4 3-4-1 6-4 9-4-2v-2l-3-1v-3l-3-1-1-5z" fill="#98B2DD"/>
<path transform="translate(460,340)" d="m0 0h2v2h2l4 5v3l4 2 3 1v2l-9 1-7-4-1-4 1-7z" fill="#EFFDFF"/>
<path transform="translate(1203,285)" d="m0 0h5l-4 2h-2l5 18v8h-2l-9-20 1-5z" fill="#F7D38A"/>
<path transform="translate(481,671)" d="m0 0 3 2v2l3 1 4 5v3l-8 4h-5l1-12z" fill="#424665"/>
<path transform="translate(1107,501)" d="m0 0 4 4 10 19 13 28 5 12-3-1-14-30-15-30z" fill="#88A0C8"/>
<path transform="translate(929,648)" d="m0 0h9l-3 2 4 4 1 4v3l-6 1-5-2-1-2v-9z" fill="#F0FCFE"/>
<path transform="translate(463,446)" d="m0 0 3 2-2 5-6 10-8 12-8 14h-2l-2 5-8 13-2-2 10-16 6-9 6-10 10-15 3-5z" fill="#DB465E"/>
<path transform="translate(924,716)" d="m0 0 4 1 14 8v2h-18z" fill="#F5F9FB"/>
<path transform="translate(781,513)" d="m0 0 5 2 3 3-1 12-1 2h-5l-1-1z" fill="#F6FAFD"/>
<path transform="translate(439,470)" d="m0 0 1 3v3l-2 5-12 18h-5l8-14 8-11z" fill="#F6D18A"/>
<path transform="translate(688,573)" d="m0 0 4 1 3 2v35l-3-1h2v-24l-6-1-1-3v-8z" fill="#A3BDE6"/>
<path transform="translate(799,539)" d="m0 0 5 2v15l-1 1h-6v-14z" fill="#F8FBFD"/>
<path transform="translate(664,442)" d="m0 0 5 2 2 2-1 16h-5l-1-1z" fill="#EDF4FB"/>
<path transform="translate(647,207)" d="m0 0 1 3-1 2-1 9-3 3-15 2h-10v2h-13v-2l26-3 8-1 3-2 2-9z" fill="#F9FCFE"/>
<path transform="translate(715,515)" d="m0 0 5 1 1 1v15l-3 1-4-2v-15z" fill="#F7FCFE"/>
<path transform="translate(1016,516)" d="m0 0h6l2 11v5h-8l-1-15z" fill="#F3F8FC"/>
<path transform="translate(648,515)" d="m0 0 6 2v15l-3 1-4-2v-14z" fill="#F9FCFE"/>
<path transform="translate(382,381)" d="m0 0 12 5 6 3v4l-11-2-8-1v-7z" fill="#F0958E"/>
<path transform="translate(615,422)" d="m0 0h6v17l-7-1v-15z" fill="#F9FCFE"/>
<path transform="translate(614,516)" d="m0 0h6l1 1v15h-7z" fill="#F9FCFE"/>
<path transform="translate(453,492)" d="m0 0 5 5 3 6-9 4h-2l-2-2v-9h4z" fill="#BAC7DD"/>
<path transform="translate(1179,168)" d="m0 0h3v7l-1-4-6 3h-5l3-1v-2l5-2zm-16 7 4 2v3l4-2 10-3v2l-11 5h-2v5l-1-3-9 4h-4l1-3 4-1 2-2 4 1-1-4-2-2z" fill="#D5CDB2"/>
<path transform="translate(933,685)" d="m0 0 5 1 2 4-4-2h-2l5 3-1 2-6-2 2 6 4 2-1 1 3 1-1 1h-6l-4-2-2-10 2-4z" fill="#EFFCFE"/>
<path transform="translate(1087,329)" d="m0 0 11 3 13 4 8 3v1l-10-1-11-3-9 1-3-3z" fill="#F1FCFE"/>
<path transform="translate(352,317)" d="m0 0 2 1 1 5-7 10h-4l-1 3-1-6 4-8z" fill="#394768"/>
<path transform="translate(1114,807)" d="m0 0 2 1-7 6-3 2-1 3-4 1h-7l-8-3v-2l11-1 2 1 14-7z" fill="#3F4D73"/>
<path transform="translate(441,478)" d="m0 0 1 2v2 3l-6 9-7 11h-2l-1-3 4-8z" fill="#F6CF86"/>
<path transform="translate(965,446)" d="m0 0h6l1 3v12l-1 1h-5l-1-1z" fill="#F9FCFE"/>
<path transform="translate(709,667)" d="m0 0h9l15 9-4 2-3 1-15-9-2-1z" fill="#F1FBFD"/>
<path transform="translate(899,539)" d="m0 0 6 2v14l-6 1-1-1v-14z" fill="#F9FCFE"/>
<path transform="translate(1290,517)" d="m0 0h7v15h-7z" fill="#F9FCFE"/>
<path transform="translate(816,516)" d="m0 0 5 1v14l4 2-3 1-10-6-1-2 4 1v-10z" fill="#F4F8FB"/>
<path transform="translate(815,423)" d="m0 0h6v15h-7v-14z" fill="#F9FCFE"/>
<path transform="translate(982,517)" d="m0 0h6l1 2v13h-7z" fill="#F9FCFE"/>
<path transform="translate(1224,423)" d="m0 0h5l1 1v14h-7v-14z" fill="#F9FCFE"/>
<path transform="translate(782,423)" d="m0 0h5l1 1v14h-7v-14z" fill="#F9FCFE"/>
<path transform="translate(749,423)" d="m0 0h5v15h-7v-14z" fill="#F9FCFE"/>
<path transform="translate(731,539)" d="m0 0 5 1 1 1v15l-5 1-1-1z" fill="#F8FBFD"/>
<path transform="translate(732,492)" d="m0 0 5 1v17l-6-1v-16z" fill="#F8FCFE"/>
<path transform="translate(615,469)" d="m0 0 5 1 1 4v8l-1 3h-6v-15z" fill="#F9FCFE"/>
<path transform="translate(715,423)" d="m0 0h5l1 2v13h-7v-14z" fill="#F9FCFE"/>
<path transform="translate(286,538)" d="m0 0 5 1v17h-5l-1-1v-15z" fill="#F9FCFE"/>
<path transform="translate(1072,461)" d="m0 0h2l7 9 13 10 5 5 3 5v2h2v3h2l1 6-3-3-10-14-9-8-9-7-4-5z" fill="#809FD7"/>
<path transform="translate(682,469)" d="m0 0 4 1 1 1v14l-1 2h-4l-1-2v-15z" fill="#F8FCFE"/>
<path transform="translate(661,595)" d="m0 0 1 2h2v34l-3-3z" fill="#49456C"/>
<path transform="translate(1157,563)" d="m0 0h5l1 7v14l-4-4-3-5z" fill="#F9FCFE"/>
<path transform="translate(748,469)" d="m0 0h6v15l-2 3-4-2z" fill="#F9FCFE"/>
<path transform="translate(1103,566)" d="m0 0 5 2 6 5 1 5-8 1-6-8v-3h2z" fill="#3F4B72"/>
<path transform="translate(866,539)" d="m0 0 5 1v16l-6-1v-15z" fill="#F9FCFE"/>
<path transform="translate(337,516)" d="m0 0 5 1v15l-5 1-1-1v-15z" fill="#F9FCFE"/>
<path transform="translate(1190,469)" d="m0 0h6v17h-5l-1-5z" fill="#F9FCFE"/>
<path transform="translate(1157,423)" d="m0 0h6v15h-7v-8z" fill="#F9FCFE"/>
<path transform="translate(755,574)" d="m0 0 6 3v36h-1v-27l-5-1-1-1v-9z" fill="#B7CCEB"/>
<path transform="translate(455,418)" d="m0 0h12l12 6 7 7 3 5 1 9-2-1-5-12v-2h-3v-2h-3v-2l-5-2v-2l-7-2h-10z" fill="#455482"/>
<path transform="translate(1124,469)" d="m0 0h5v17h-5l-1-5v-11z" fill="#F9FCFE"/>
<path transform="translate(1240,446)" d="m0 0h6v16h-6z" fill="#F9FCFE"/>
<path transform="translate(1207,446)" d="m0 0h6v16h-6z" fill="#F9FCFE"/>
<path transform="translate(1173,446)" d="m0 0h6v16h-6z" fill="#F9FCFE"/>
<path transform="translate(1140,446)" d="m0 0h6v16h-6z" fill="#F9FCFE"/>
<path transform="translate(597,446)" d="m0 0h6v16h-6z" fill="#F9FCFE"/>
<path transform="translate(503,423)" d="m0 0h6l1 14-1 1h-6z" fill="#F9FCFE"/>
<path transform="translate(849,516)" d="m0 0h5v16h-6v-15z" fill="#F9FCFE"/>
<path transform="translate(798,493)" d="m0 0h6v16h-5l-1-1z" fill="#F9FCFE"/>
<path transform="translate(597,493)" d="m0 0h6v15l-1 1h-5z" fill="#F9FCFE"/>
<path transform="translate(1261,469)" d="m0 0 2 1v16h-5l-1-3v-13z" fill="#F9FCFE"/>
<path transform="translate(764,540)" d="m0 0 7 4v11l-1 1h-6z" fill="#F6FAFC"/>
<path transform="translate(597,540)" d="m0 0h6v15l-5 1-1-1z" fill="#F9FCFE"/>
<path transform="translate(1274,446)" d="m0 0h5l1 1v14l-1 1h-5z" fill="#F9FCFE"/>
<path transform="translate(933,446)" d="m0 0h5v15l-1 1h-5v-15z" fill="#F9FCFE"/>
<path transform="translate(950,422)" d="m0 0 5 1v15h-6v-15z" fill="#F9FCFE"/>
<path transform="translate(1099,635)" d="m0 0 4 2 8 17v5h-2l-4-5-6-14z" fill="#F3FCFE"/>
<path transform="translate(905,631)" d="m0 0 9 2 5 5v4l-4-2-4-3-5-1-2 1-2 6-2-2v-6l2-3z" fill="#EFFDFF"/>
<path transform="translate(1e3 493)" d="m0 0 5 1v15h-5l-1-1v-14z" fill="#F9FCFE"/>
<path transform="translate(837,630)" d="m0 0 5 1v2l3 1h-8l-2 8v8l-5-2v-10l5-7z" fill="#EFFDFF"/>
<path transform="translate(1242,539)" d="m0 0 4 1v15h-6v-15z" fill="#F9FCFE"/>
<path transform="translate(1191,516)" d="m0 0 5 1v14l-5 1-1-1v-14z" fill="#F9FCFE"/>
<path transform="translate(883,516)" d="m0 0 5 1v14l-5 1-1-1v-14z" fill="#F9FCFE"/>
<path transform="translate(1274,493)" d="m0 0h5l1 3v12l-1 1h-5z" fill="#F9FCFE"/>
<path transform="translate(900,443)" d="m0 0 4 2v17h-5l-1-18z" fill="#F8FBFD"/>
<path transform="translate(1268,640)" d="m0 0h8l2 4-3 5-7 5-1-5z" fill="#EFFDFF"/>
<path transform="translate(731,446)" d="m0 0h6v15l-5 1-1-1z" fill="#F9FCFE"/>
<path transform="translate(343,346)" d="m0 0 1 3 5 2 2 16-2 1-4-8h-2l-1-4v-8z" fill="#3E4A6B"/>
<path transform="translate(698,540)" d="m0 0 5 2 2 1-1 12-1 1h-5z" fill="#F7FAFC"/>
<path transform="translate(1274,540)" d="m0 0h6v15h-6z" fill="#F9FCFE"/>
<path transform="translate(999,540)" d="m0 0h6v15h-6z" fill="#F9FCFE"/>
<path transform="translate(966,540)" d="m0 0h6v15h-6z" fill="#F9FCFE"/>
<path transform="translate(932,540)" d="m0 0h6v15h-6z" fill="#F9FCFE"/>
<path transform="translate(1257,517)" d="m0 0h6v15h-6z" fill="#F9FCFE"/>
<path transform="translate(580,517)" d="m0 0h6v15h-6z" fill="#F9FCFE"/>
<path transform="translate(547,517)" d="m0 0h6v15h-6z" fill="#F9FCFE"/>
<path transform="translate(1157,469)" d="m0 0h5l1 1-1 16h-5z" fill="#F9FCFE"/>
<path transform="translate(798,446)" d="m0 0h6v15h-6z" fill="#F9FCFE"/>
<path transform="translate(765,446)" d="m0 0h5l1 1v14l-2 1-4-1z" fill="#F9FCFE"/>
<path transform="translate(1190,423)" d="m0 0h6v15h-6z" fill="#F9FCFE"/>
<path transform="translate(1090,423)" d="m0 0h5l1 1v14h-6l-1-12z" fill="#F9FCFE"/>
<path transform="translate(681,423)" d="m0 0h6v15h-6z" fill="#F9FCFE"/>
<path transform="translate(949,517)" d="m0 0h5l1 1v14h-6z" fill="#F9FCFE"/>
<path transform="translate(915,517)" d="m0 0h6v15h-5l-1-1z" fill="#F9FCFE"/>
<path transform="translate(302,469)" d="m0 0h5l1 1 1 13 2 1-4 9h-1l-3-19z" fill="#F1F7FC"/>
<path transform="translate(1257,423)" d="m0 0h5l1 1v14h-6z" fill="#F9FCFE"/>
<path transform="translate(1124,423)" d="m0 0h5v15h-6v-14z" fill="#F9FCFE"/>
<path transform="translate(303,423)" d="m0 0h5v15h-6v-14z" fill="#F9FCFE"/>
<path transform="translate(1207,540)" d="m0 0h5l1 2v13h-6z" fill="#F9FCFE"/>
<path transform="translate(1207,493)" d="m0 0h5l1 3v8l-1 5h-5z" fill="#F9FCFE"/>
<path transform="translate(564,493)" d="m0 0h5l1 1v8l-1 7h-5z" fill="#F9FCFE"/>
<path transform="translate(523,365)" d="m0 0h14l2 1h9l3 2-7 2h-9l-2-1-5 1z" fill="#EFFDFF"/>
<path transform="translate(489,684)" d="m0 0 1 2-1 5-7 3h-7l-2-5v-3l4 2 6-1z" fill="#E8F6FD"/>
<path transform="translate(697,578)" d="m0 0 5 2 8 5v1h-12v27h-1z" fill="#B8CCE8"/>
<path transform="translate(665,539)" d="m0 0 4 1 1 1v16l-5-1-1-3z" fill="#F2F7FB"/>
<path transform="translate(1140,493)" d="m0 0h5l1 1-1 15h-5z" fill="#F9FCFE"/>
<path transform="translate(865,493)" d="m0 0h6v15l-5 1z" fill="#F9FCFE"/>
<path transform="translate(1107,446)" d="m0 0h5l1 15-1 1h-5z" fill="#F9FCFE"/>
<path transform="translate(665,492)" d="m0 0 5 1v17l-5-1z" fill="#F9FCFE"/>
<path transform="translate(699,445)" d="m0 0 4 1 1 16-5-2-2-2 1-12z" fill="#F5F8FB"/>
<path transform="translate(421,436)" d="m0 0v3l-2 5-5 8-4 10-1 3h-2l-1 3 1-8 6-14 7-9z" fill="#3F4D74"/>
<path transform="translate(424,519)" d="m0 0h4v2h-3l-1 3-7 6-7 10h-3v-4h2l2-4 7-8z" fill="#4A4C72"/>
<path transform="translate(1224,469)" d="m0 0h5v17h-5z" fill="#F9FCFE"/>
<path transform="translate(581,469)" d="m0 0h5v16h-6z" fill="#F9FCFE"/>
<path transform="translate(863,717)" d="m0 0 10 5 5 3v2h-14l-1-3z" fill="#F3F7FB"/>
<path transform="translate(1030,637)" d="m0 0 7 3 1 3 4 2 5 3-3 3-6-1v-4l-10-4v-4z" fill="#EFFDFF"/>
<path transform="translate(932,493)" d="m0 0h5l1 1v15h-5z" fill="#F9FCFE"/>
<path transform="translate(458,436)" d="m0 0 2 2-8 14-9 13-9 15-2 1 2-5 8-14 6-8 6-11z" fill="#DE435D"/>
<path transform="translate(1241,493)" d="m0 0h5v16h-5l-1-15z" fill="#F9FCFE"/>
<path transform="translate(1174,493)" d="m0 0h5v16h-5l-1-15z" fill="#F9FCFE"/>
<path transform="translate(916,469)" d="m0 0 5 1v15l-5 1z" fill="#F9FCFE"/>
<path transform="translate(849,423)" d="m0 0h5v14l-5 1-1-1v-12z" fill="#F9FCFE"/>
<path transform="translate(690,656)" d="m0 0h3l2 4-3 3-4 1 5 2-1 2-13-2-2-1v-2l9-2 3-2z" fill="#EFFCFE"/>
<path transform="translate(1224,517)" d="m0 0h5l1 14-1 1h-5l-1-14z" fill="#F9FCFE"/>
<path transform="translate(749,516)" d="m0 0 4 1 1 1 1 13-5-2-4-2 2-10z" fill="#F6F9FC"/>
<path transform="translate(1292,469)" d="m0 0h4v17l-5-1v-15z" fill="#F9FCFE"/>
<path transform="translate(444,425)" d="m0 0 4 1-6 8-4 4v-2l-2-1 3-4h-2l-2 4-4 4 1-7 6-4 5-2z" fill="#F3BA84"/>
<path transform="translate(831,543)" d="m0 0 5 2 4 4h-2l-1 7h-5l-1-1z" fill="#F5F9FB"/>
<path transform="translate(966,493)" d="m0 0h5v16h-5z" fill="#F9FCFE"/>
<path transform="translate(899,493)" d="m0 0h5v16h-5z" fill="#F9FCFE"/>
<path transform="translate(832,493)" d="m0 0h5v16h-5z" fill="#F9FCFE"/>
<path transform="translate(849,470)" d="m0 0h5v16h-5z" fill="#F9FCFE"/>
<path transform="translate(425,454)" d="m0 0h1v5l-7 11-2 3h-2l-1-6 4-6 3-3z" fill="#F4B66B"/>
<path transform="translate(832,446)" d="m0 0h5v16h-5z" fill="#F9FCFE"/>
<path transform="translate(949,470)" d="m0 0h5v16l-5-1z" fill="#F9FCFE"/>
<path transform="translate(815,470)" d="m0 0h5v16l-5-1z" fill="#F9FCFE"/>
<path transform="translate(983,469)" d="m0 0 5 1v15h-5z" fill="#F9FCFE"/>
<path transform="translate(783,469)" d="m0 0h4v16h-5v-15z" fill="#F9FCFE"/>
<path transform="translate(465,427)" d="m0 0 2 4-1 5-3 5-3-1-1-3-2-1 1-5 2-2 2 3 2-4z" fill="#9CB1D3"/>
<path transform="translate(1174,540)" d="m0 0h5v15h-5l-1-4z" fill="#F9FCFE"/>
<path transform="translate(882,470)" d="m0 0h5v16l-5-1z" fill="#F9FCFE"/>
<path transform="translate(837,671)" d="m0 0 4 1h-3l5 1-3 2h-2l-3 13-2-1-3 1v-8l4-5z" fill="#EFFCFE"/>
<path transform="translate(453,422)" d="m0 0 4 1h3l-2 6h-3l-2-3-5 9h-2l-2 4-1-6z" fill="#F1BE89"/>
<path transform="translate(442,488)" d="m0 0 2 4-10 15-4-1 7-12 3-5z" fill="#F6D089"/>
<path transform="translate(648,471)" d="m0 0 5 2 1 1-1 12-5-1z" fill="#F6FAFC"/>
<path transform="translate(772,630)" d="m0 0 4 1 5 2v1l-9 1-3 13-4-2 1-7 3-7z" fill="#EFFCFE"/>
<path transform="translate(1157,517)" d="m0 0h5v15h-5z" fill="#F9FCFE"/>
<path transform="translate(453,428)" d="m0 0 3 4-9 14-2 2-1-2-2 1 2-5z" fill="#F6CF87"/>
<path transform="translate(348,589)" d="m0 0 4 2 7 7v2l-6 1v-2l-5-1z" fill="#F3D28E"/>
<path transform="translate(714,473)" d="m0 0 4 1 3 2-1 10-5-1-1-1z" fill="#F7FAFD"/>
<path transform="translate(1307,448)" d="m0 0 4 4 6 10h-10z" fill="#F9FCFE"/>
<path transform="translate(1275,744)" d="m0 0 2 2-5 6-8 4-7 1 1-3 6-4 3-1v2z" fill="#404E75"/>
<path transform="translate(683,516)" d="m0 0 4 1 1 11 2 2-4-1-6-3 1-9z" fill="#F3F7FA"/>
<path transform="translate(705,630)" d="m0 0h7l2 3-7 1-2 5v10h-3l-1-3v-7l2-7z" fill="#F0FCFE"/>
<path transform="translate(1141,197)" d="m0 0 4 2-1 4 4 1-2 4 4-1 2-2 3 2-2 2-4 1-2 4v-3l-3-1 1-4-8 3 1-4h5l-1-4-2-2z" fill="#CFCCBB"/>
<path transform="translate(449,484)" d="m0 0 2 4 3 4-1 5-5-1 1 11h-2l-1-14 1-5z" fill="#929EC3"/>
<path transform="translate(467,454)" d="m0 0 1 3-13 20-1 3-3 3 3 1-6 1 2-5 10-15 6-10z" fill="#BB435D"/>
<path transform="translate(459,438)" d="m0 0 4 4-4 5-5 8-3 1 1-6z" fill="#F6C97F"/>
<path transform="translate(472,434)" d="m0 0 1 3h4l-1 4-5 9h-2v2h-2v-5l3-1-1-3 3-3-1-3z" fill="#BBCEE9"/>
<path transform="translate(444,434)" d="m0 0 1 2-2 7-6 9h-2l1-8 6-9z" fill="#F7C86B"/>
<path transform="translate(451,422)" d="m0 0 2 1-9 10-4 6v-3l4-6 3-4-6 1-1 3v-2l-6 4-2-1 5-4 8-4z" fill="#76405C"/>
<path transform="translate(370,406)" d="m0 0 5 1 19 10 2 4-5-2-21-12z" fill="#D3E2F8"/>
<path transform="translate(491,464)" d="m0 0h1l-1 10-4 10-3 5-4 3-2-5 3-1 2 1 2-6 3-7z" fill="#495E93"/>
<path transform="translate(931,608)" d="m0 0 2 1-1 3 3 1-1 3h2l1-2v3h2l2-2-1 4-1 1h-8l-2-3v-7z" fill="#F0FCFE"/>
<path transform="translate(465,490)" d="m0 0 2 1-3 7 3-1 1-4 6 1-7 7-2 5h-1l-1-6-2-1-1-1 1-3h3l-1-3z" fill="#4A6193"/>
<path transform="translate(1147,343)" d="m0 0 10 1 5 4-8 1h-7z" fill="#F3FCFE"/>
<path transform="translate(927,753)" d="m0 0 5 2 15 9 1 3-4-1-16-10z" fill="#252C49"/>
<path transform="translate(1114,731)" d="m0 0 5 4 1 6-4 1-4-4v-5z" fill="#3D4561"/>
<path transform="translate(1126,727)" d="m0 0 3 1 2 8v7l-6-6v-9z" fill="#3F4B6D"/>
<path transform="translate(1079,274)" d="m0 0 2 4 1 9h2l-2 4-2 1-2-1-1-5v-7z" fill="#ECFAFE"/>
<path transform="translate(453,669)" d="m0 0 7 6 9 8-3 1-6-3-2-4-7-4z" fill="#E0F0FC"/>
<path transform="translate(437,431)" d="m0 0h2l-2 4-12 18-5 8-1-2 8-14 8-11z" fill="#B6425C"/>
<path transform="translate(1290,427)" d="m0 0 5 4 4 6-1 1h-8z" fill="#F9FCFE"/>
<path transform="translate(1193,187)" d="m0 0 4 1-12 6-5 1v2h-5v2l-4-1 2-3 4-1 5-2z" fill="#D0CCB9"/>
<path transform="translate(476,488)" d="m0 0 5 1-1 3-6 6-2-1-2 5-3 2-1-3 7-6 1-5h2z" fill="#4C4F77"/>
<path transform="translate(485,469)" d="m0 0 1 4-5 11-4-2v-2l-3-1-1-4 5 1v3h2z" fill="#B9CFF0"/>
<path transform="translate(629,611)" d="m0 0 5 2 3 1v2l5 2 5 3v3l-5-2-9-5v-2l-4-2z" fill="#2A2E4D"/>
<path transform="translate(882,563)" d="m0 0h5l1 1 1 9-6-2-2-2z" fill="#F3F8FB"/>
<path transform="translate(428,485)" d="m0 0 1 2-6 10-1 1 3 1 2 6-5-2-5-4v-2l4-1 6-10z" fill="#E77768"/>
<path transform="translate(412,456)" d="m0 0 1 3-3 9-1 9-2 2-1-2v-9l1-3h2l-1-3h2l1-5z" fill="#486EB8"/>
<path transform="translate(648,422)" d="m0 0 5 1 1 1v7l-5-1-3-2z" fill="#F4F8FA"/>
<path transform="translate(402,603)" d="m0 0 18 1h10v1l-7 2h-12l-11-2z" fill="#537CCC"/>
<path transform="translate(327,368)" d="m0 0h5l2 4-3 4-6 1z" fill="#EFFDFF"/>
<path transform="translate(1174,214)" d="m0 0 4 1-2 2-8 3-10 5-1-4 5-1 1-2 5-1z" fill="#CBCBBE"/>
<path transform="translate(925,170)" d="m0 0h4l4 13v3h-3l-5-14z" fill="#DE435D"/>
<path transform="translate(715,631)" d="m0 0 4 2 5 5 2 7h-3l-2-2-3-6-4-4z" fill="#EFFCFE"/>
<path transform="translate(1168,229)" d="m0 0 4 1-2 2-4 1-2 2-4 1-6 3h-3l1-4 4 1 1-3h5v-2z" fill="#C3CBCC"/>
<path transform="translate(1150,161)" d="m0 0 3 1 4 10 2 1-1 3-5 2-4-1 2-3 4 1-4-10z" fill="#CECCBA"/>
<path transform="translate(1128,531)" d="m0 0 3 4 9 19-1 3-8-15-4-10z" fill="#3D4665"/>
<path transform="translate(764,493)" d="m0 0h6l1 1v8l-5-2-2-2z" fill="#F6FAFC"/>
<path transform="translate(452,417)" d="m0 0h10v1h-7v2l5-1v2l-9 2h-6v-1h5v-2h-5l1-2z" fill="#5076C2"/>
<path transform="translate(821,575)" d="m0 0 6 3v8l-5-1-1-2z" fill="#B4CCF1"/>
<path transform="translate(1095,814)" d="m0 0 2 1-1 2h6l-1 3h-7l-8-3v-2z" fill="#415079"/>
<path transform="translate(1127,539)" d="m0 0 2 2 10 22h-3l-10-22z" fill="#537CCC"/>
<path transform="translate(1193,230)" d="m0 0 2 1-4 4-10 4-6 3-4-1 12-6z" fill="#CACBBF"/>
<path transform="translate(475,487)" d="m0 0 2 1-1 2h-2v4l-4 1v-2h-2l-1 5h-3l1-6 5-3 1 2z" fill="#242A46"/>
<path transform="translate(416,451)" d="m0 0 2 3v5l-4 6h-2l-1-4z" fill="#EAA464"/>
<path transform="translate(536,829)" d="m0 0 2 1-2 5-4 6-3-1 1-4 4-6z" fill="#E9EFF3"/>
<path transform="translate(530,547)" d="m0 0 5 2 2 2v4l-6 1-1-1z" fill="#F9FCFE"/>
<path transform="translate(435,446)" d="m0 0 1 2-1 7-6 9-1-3 2-7z" fill="#F7D289"/>
<path transform="translate(1177,206)" d="m0 0 3 1 1 4 2 2-2 3v-2l-3-1 1-4-10 5-4-1 1-2h5v-2l6-1z" fill="#CBCCC0"/>
<path transform="translate(763,579)" d="m0 0 5 2 7 4v1h-12z" fill="#A4BFEC"/>
<path transform="translate(698,501)" d="m0 0 5 2 2 1-1 5-6 1z" fill="#F3F7FA"/>
<path transform="translate(424,485)" d="m0 0 2 1-1 4-4 7h-4l2-5z" fill="#F6D187"/>
<path transform="translate(508,228)" d="m0 0h10l10 2v1h-21l-1-2z" fill="#EFFDFF"/>
<path transform="translate(528,826)" d="m0 0h3l-1 4-4 7-4-1 2-5z" fill="#E9EFF6"/>
<path transform="translate(1171,688)" d="m0 0 6 1 7 1-4 2-5 1-8-1-4-1z" fill="#EFFDFF"/>
<path transform="translate(894,581)" d="m0 0 5 2-4 2v31h-1z" fill="#BAC7D3"/>
<path transform="translate(447,485)" d="m0 0 1 3-9 15-4 5-3-1 4-4 6-10z" fill="#C4435D"/>
<path transform="translate(543,833)" d="m0 0h2l-1 5-5 7-2-1 1-6h2l2-4z" fill="#EAEFF4"/>
<path transform="translate(441,459)" d="m0 0v3l-3 8-2 3-3-1 3-8z" fill="#F8CD6D"/>
<path transform="translate(431,432)" d="m0 0 1 3-2 7-4 2-1-3-3 2 2-4 5-4z" fill="#F3B066"/>
<path transform="translate(275,846)" d="m0 0 9 1 3 2v2h-7l-5-1z" fill="#E7E9E7"/>
<path transform="translate(1113,805)" d="m0 0 2 1-4 4-12 6-3-1 5-3z" fill="#3D4665"/>
<path transform="translate(445,463)" d="m0 0 1 4-5 9-3 1 3-10z" fill="#F8CC6A"/>
<path transform="translate(519,645)" d="m0 0 10 2v7l-2 1-5-7z" fill="#364364"/>
<path transform="translate(464,475)" d="m0 0h2l1 5-3 5-2-1 1-4-3-1v4l-4-1 5-5z" fill="#4F4F77"/>
<path transform="translate(448,469)" d="m0 0 1 4-5 9-4 2 3-9z" fill="#F8CB6C"/>
<path transform="translate(458,436)" d="m0 0 2 2-8 14-5 5 2-6 8-13z" fill="#BB4562"/>
<path transform="translate(883,423)" d="m0 0h4l1 7-6 1v-7z" fill="#F9FCFE"/>
<path transform="translate(1191,181)" d="m0 0m-5 2h5v2l-15 7h-2l1-4h4l1-2 5-1z" fill="#D1CDB8"/>
<path transform="translate(1141,166)" d="m0 0 3 2v5l2 1v3l2 1-1 3-3-1-3-9-3-2z" fill="#D0CCB8"/>
<path transform="translate(463,446)" d="m0 0 3 2-2 5-6 10-4 4 1-4 8-13z" fill="#BB455F"/>
<path transform="translate(417,339)" d="m0 0 5 3-5 10h-1v-12z" fill="#E9F7FD"/>
<path transform="translate(1013,322)" d="m0 0 3 1-1 1 5 1-2 2-10 1-2-2z" fill="#F1FBFE"/>
<path transform="translate(762,699)" d="m0 0 1 3-3 3 2 2-5 1v-2l-5-1 3-4h7z" fill="#EFFDFF"/>
<path transform="translate(357,660)" d="m0 0h2l2 7-5-1h-3v-4z" fill="#EFFCFE"/>
<path transform="translate(1116,642)" d="m0 0 4 2 1 6-2 3-4-5v-5z" fill="#EFFDFF"/>
<path transform="translate(478,492)" d="m0 0 2 1-5 7-11 8-1-2 2-1 2-3h2l1-3h2v-2l4-2z" fill="#5177C3"/>
<path transform="translate(478,437)" d="m0 0h2v3l-2 1-4 8h-2v4l-4-1 1-2h2l2-5z" fill="#4A66A1"/>
<path transform="translate(905,631)" d="m0 0m-3 1 6 1-2 1v2l-2 1-2 6-2-2v-6z" fill="#F0FCFE"/>
<path transform="translate(1118,520)" d="m0 0 3 4 6 13-1 3-9-17z" fill="#7896CC"/>
<path transform="translate(1139,409)" d="m0 0h7v6l-4 1-2-1z" fill="#F9FCFE"/>
<path transform="translate(1259,697)" d="m0 0 2 3 1 5-6 1v5h-1v-10l3-1z" fill="#E2EEFB"/>
<path transform="translate(408,494)" d="m0 0 2 4 1 10-3 12-1-4 1-17z" fill="#9B4665"/>
<path transform="translate(699,492)" d="m0 0 5 2v6l-5-1-1-1v-5z" fill="#EBF1F9"/>
<path transform="translate(476,463)" d="m0 0 4 1v2l4 1v4l-4-1-5-3z" fill="#B8D0F4"/>
<path transform="translate(1077,260)" d="m0 0h7l-3 6-3 3-1-2z" fill="#E8EFF8"/>
<path transform="translate(398,219)" d="m0 0 5 2-1 2-7 1-8-2-2-2h7l3 1h3z" fill="#F8FCFE"/>
<path transform="translate(1196,192)" d="m0 0m-1 1 2 2-13 5-2 2h-3l1-3 5-1 1-2z" fill="#CCCCBE"/>
<path transform="translate(912,91)" d="m0 0h16l-2 1v2h-11l-3-1z" fill="#F9FCFE"/>
<path transform="translate(816,563)" d="m0 0 4 1 1 1v6l-5-2-2-1z" fill="#F4F8FA"/>
<path transform="translate(474,464)" d="m0 0 1 3 5 2 4 2-2 4v-3l-5-2-4-1-2 2-2-2 2-1 1-3z" fill="#4B6CB0"/>
<path transform="translate(921,431)" d="m0 0 2 1-2 7-6-1-2-2z" fill="#F9FCFE"/>
<path transform="translate(442,420)" d="m0 0h8v2l-10 3-4 1-1-2z" fill="#415585"/>
<path transform="translate(1080,325)" d="m0 0 7 3-1 5-7-3-5-1v-1h6z" fill="#F8EDE9"/>
<path transform="translate(1142,185)" d="m0 0 3 1v3l4 1v-2h5l-2 3-5 2-2 1-2-2v-4l-2-1z" fill="#C7CBC6"/>
<path transform="translate(1155,159)" d="m0 0 4 2 4 9 1 2-2 2-2-1-1-4-3-6z" fill="#D3CDB5"/>
<path transform="translate(446,661)" d="m0 0 4 1 7 8 7 7h-3l-15-15z" fill="#4A73C2"/>
<path transform="translate(853,636)" d="m0 0 2 1v3l4 2-1 4h-3l-4-7 1-2z" fill="#EFFCFE"/>
<path transform="translate(1072,461)" d="m0 0h2l7 9 4 4h-3l-6-5-4-5z" fill="#557ECD"/>
<path transform="translate(479,433)" d="m0 0h2l6 10-1 2-2-3-4 7-2-2 4-8-3-4z" fill="#48639D"/>
<path transform="translate(1080,268)" d="m0 0h1l2 20-2-1-1-9-2-1v-7h2z" fill="#F8FCFE"/>
<path transform="translate(1191,237)" d="m0 0h3l-1 3-10 5h-4l1-3 10-4z" fill="#CBCCC2"/>
<path transform="translate(1167,198)" d="m0 0 4 2-7 4-5 2-4-1 1-2h5v-2l6-1z" fill="#CFCCBA"/>
<path transform="translate(1171,165)" d="m0 0 3 1-1 3h-4l1 4 2 2-5 1 1-5-4-1 3-3h3z" fill="#CCCCBC"/>
<path transform="translate(435,696)" d="m0 0h2v2l-11 4h-4v-2l6-3z" fill="#4B75C4"/>
<path transform="translate(932,649)" d="m0 0h7l3 5v4l-4 1-1-7-5-2z" fill="#F6FCFE"/>
<path transform="translate(218,600)" d="m0 0h5l3 3-10 2-7 6 2-4 5-6z" fill="#F0FCFE"/>
<path transform="translate(468,470)" d="m0 0h2l3 7-6 2-1-5z" fill="#3D3E5E"/>
<path transform="translate(816,240)" d="m0 0 4 3v2h2l1 5-4-2-5-5z" fill="#EFFDFF"/>
<path transform="translate(909,672)" d="m0 0 4 1 4 3v2l2 1-3 1-6-4-5-1z" fill="#EFFCFE"/>
<path transform="translate(519,608)" d="m0 0 9 1-3 3h-10z" fill="#EFFDFF"/>
<path transform="translate(764,502)" d="m0 0 8 4v2l-7 1h-1z" fill="#F1F6FA"/>
<path transform="translate(453,465)" d="m0 0 1 4-7 11-1 2h-2l2-6z" fill="#D4435D"/>
<path transform="translate(869,456)" d="m0 0h2v6h-6l-2-4z" fill="#F9FCFE"/>
<path transform="translate(462,423)" d="m0 0 7 1 9 6v3l-11-7-5-2z" fill="#554A6F"/>
<path transform="translate(1056,321)" d="m0 0 4 1 3 2 9 1 1 2-14-1-3-3z" fill="#F2FCFE"/>
<path transform="translate(1159,227)" d="m0 0m-2 1h2l-1 3-6 1-1 3-3-2v-3z" fill="#C4CBCA"/>
<path transform="translate(611,225)" d="m0 0h8l-1 3h-13v-2z" fill="#F5FCFE"/>
<path transform="translate(1111,754)" d="m0 0h7l5 4-2 4-1-5h-11v-2z" fill="#435580"/>
<path transform="translate(1078,459)" d="m0 0h2l6 8 2 4-4-2-6-7z" fill="#567ECD"/>
<path transform="translate(483,430)" d="m0 0 3 1 3 5 1 9-2-1-5-12z" fill="#42537F"/>
<path transform="translate(1183,176)" d="m0 0 3 2h2l-1 3-6 3h-5l2-1 1-3h3z" fill="#D7CDAF"/>
<path transform="translate(1275,744)" d="m0 0 2 2-5 6-5 2 2-4z" fill="#414F76"/>
<path transform="translate(1275,741)" d="m0 0 3 1v3l-4 1-5 5h-2l2-4 5-5z" fill="#3B476B"/>
<path transform="translate(1227,681)" d="m0 0 4 1 12 8-3 1-9-6z" fill="#E5EDF7"/>
<path transform="translate(721,670)" d="m0 0 5 2 7 4-4 2-8-6z" fill="#E9F5F8"/>
<path transform="translate(206,614)" d="m0 0 1 4h8v1l6 1v1h-15l-1-2z" fill="#EFFDFF"/>
<path transform="translate(418,450)" d="m0 0h3l1 5-3 4-3-4z" fill="#F6CB82"/>
<path transform="translate(251,371)" d="m0 0 8 1 1 4h-3l-5-1-2-2z" fill="#EFFDFF"/>
<path transform="translate(1180,230)" d="m0 0 4 1-7 4h-4v2h-4l1-3z" fill="#C5CBC9"/>
<path transform="translate(1184,221)" d="m0 0 4 2-12 6-4-1 10-5h2z" fill="#C6CBC7"/>
<path transform="translate(1280,735)" d="m0 0h1l-1 7-4 1-1-4z" fill="#3F4C71"/>
<path transform="translate(1231,641)" d="m0 0 9 2 2 2-7 2-4-4z" fill="#EEF9FE"/>
<path transform="translate(420,441)" d="m0 0h2l-2 5-6 10-1-4z" fill="#5078C6"/>
<path transform="translate(469,430)" d="m0 0 2 1-1 3h-2l-3 9-3 1 2-5z" fill="#4967A6"/>
<path transform="translate(1171,221)" d="m0 0 3 1-7 5-4 2-4-1 1-2 10-4z" fill="#D2CDB7"/>
<path transform="translate(984,97)" d="m0 0 9 1 2 1v2h-7l-5-2z" fill="#F2FCFE"/>
<path transform="translate(276,830)" d="m0 0h5l6 3v1h-10z" fill="#E1E8F0"/>
<path transform="translate(350,474)" d="m0 0h1l-1 25h-1l-1-21z" fill="#C6CBC5"/>
<path transform="translate(453,422)" d="m0 0 4 1h3l-2 6h-3l-3-6z" fill="#A8BFE2"/>
<path transform="translate(1131,405)" d="m0 0h6l3 2h10l-3 2h-9l-7-3z" fill="#FAC297"/>
<path transform="translate(909,369)" d="m0 0 3 1-1 2h-2l-1 4-4-1 2-5z" fill="#EFFDFF"/>
<path transform="translate(1145,163)" d="m0 0 4 2 2 7-2 2-2-1-2-6z" fill="#CECCBA"/>
<path transform="translate(1092,556)" d="m0 0 4 1 3 6-4 1-3-6z" fill="#3F4C72"/>
<path transform="translate(1141,538)" d="m0 0 1 2 3 1 1 2v7l-2-1-3-8z" fill="#EBF2F8"/>
<path transform="translate(430,448)" d="m0 0 1 3-4 6-3-2 2-5z" fill="#F8CE74"/>
<path transform="translate(721,349)" d="m0 0h6l-1 3h-2v2l-4 1-2 1 2-5z" fill="#EFFCFE"/>
<path transform="translate(1195,204)" d="m0 0 3 1-3 1zm-2 2 2 1-5 3-3 2h-3l1-4 5-1z" fill="#CECCBC"/>
<path transform="translate(1146,194)" d="m0 0 4 1v5l2 2-2 3-2-2-1-4-2-2z" fill="#CDCCBF"/>
<path transform="translate(1160,182)" d="m0 0 5 1-2 3-5 2h-4l1-3 4-1z" fill="#CDCCBF"/>
<path transform="translate(1136,173)" d="m0 0 4 2v5h2l1 5-2 2-2-5v-4h-2z" fill="#D4CDB4"/>
<path transform="translate(879,93)" d="m0 0 3 1 2 2-12 1 1-3z" fill="#F6FCFE"/>
<path transform="translate(1217,673)" d="m0 0 10 6-2 2-3-2-3 1z" fill="#E4F2FC"/>
<path transform="translate(929,615)" d="m0 0h2v2l6 1 4-3-1 4-1 1h-8z" fill="#EFFDFF"/>
<path transform="translate(830,581)" d="m0 0 6 2 3 3h-9z" fill="#ACC6EF"/>
<path transform="translate(1099,488)" d="m0 0 3 2v2h2v3h2l1 6-3-3-5-7z" fill="#889DC0"/>
<path transform="translate(471,430)" d="m0 0 2 1h3l3 2-1 3-4-2h-2l-1 4-1-3z" fill="#E9F0F6"/>
<path transform="translate(1e3 275)" d="m0 0 4 1 3 6-5-1-3-4z" fill="#D3E4F6"/>
<path transform="translate(1159,237)" d="m0 0 1 2 4 1-8 4h-3l1-3 4-1z" fill="#C3CBCD"/>
<path transform="translate(1133,195)" d="m0 0h5l-2 3-10 3 3-4z" fill="#C6CBC6"/>
<path transform="translate(897,91)" d="m0 0 4 1 7 1v1l-14 1-1-3z" fill="#F9FCFE"/>
<path transform="translate(940,91)" d="m0 0 10 1v2h-15v-1l5-1z" fill="#F8FCFE"/>
<path transform="translate(1047,663)" d="m0 0h10l-2 3h-7z" fill="#EFFDFF"/>
<path transform="translate(437,429)" d="m0 0m-2 1h2l-1 4-5 5 1-7z" fill="#F7D288"/>
<path transform="translate(338,416)" d="m0 0 2 1-11 11v-3l5-6z" fill="#F7CE7C"/>
<path transform="translate(1168,229)" d="m0 0 4 1-2 2-4 1-2 2-4-2h2v-2z" fill="#C4CCCD"/>
<path transform="translate(1174,214)" d="m0 0 4 1-2 2-8 3-2 1 2-4z" fill="#C8CCC5"/>
<path transform="translate(1181,193)" d="m0 0 1 2h-2v2h-5v2l-4-1 2-3 4-1z" fill="#D4CDB6"/>
<path transform="translate(1158,177)" d="m0 0 4 2-2 2-5 2-4-1 1-2 5-1z" fill="#D2CDB6"/>
<path transform="translate(1169,204)" d="m0 0 4 1-4 2-3 2-4-1 2-2z" fill="#CCCCBF"/>
<path transform="translate(1153,210)" d="m0 0 4 2-1 2-4-1z" fill="#D2CDB6"/>
<path transform="translate(1139,192)" d="m0 0 4 2-4 2z" fill="#CECCBB"/>
<path transform="translate(1128,185)" d="m0 0h5l-2 3h-3z" fill="#C6CBC5"/>
<path transform="translate(1131,177)" d="m0 0h4v3h-4z" fill="#CECCBB"/>
<path transform="translate(1161,244)" d="m0 0h5l-3 3h-2z" fill="#C6CBC5"/>
<path transform="translate(1165,235)" d="m0 0 1 2h2l-1 3-3-1z" fill="#D3CDB4"/>
<path transform="translate(1147,182)" d="m0 0 4 2-2 2-3-1z" fill="#DCCEAA"/>
<path transform="translate(1182,204)" d="m0 0 4 1-1 2h-3z" fill="#D4CDB3"/>
<path transform="translate(1175,201)" d="m0 0 3 1-1 2-4-1z" fill="#C4CBC9"/>
<path transform="translate(1167,241)" d="m0 0 3 1-1 3-3-2z" fill="#C6CBC5"/>
<path transform="translate(1159,208)" d="m0 0 3 2-2 2-2-1z" fill="#D0CCB7"/>
<path transform="translate(1134,182)" d="m0 0 3 1v2l-4-1z" fill="#C6CBC5"/>
<path transform="translate(1167,163)" d="m0 0" fill="#F7D38A"/>
</svg>
